<svg width="174" height="40" viewBox="0 0 174 40" fill="none" xmlns="http://www.w3.org/2000/svg">
<g clip-path="url(#clip0_178_524)">
<path d="M88.5312 8V8.78125H83.9858V8H88.5312Z" fill="#5555FF"/>
<path d="M94.5312 8V8.78125H89.9858V8H94.5312Z" fill="#5555FF"/>
<path d="M1.98864 8.38352V20.3438H1.27841V8.38352H1.98864Z" fill="#5555FF"/>
<path d="M8.57102 19.0938L6.22727 10.3864H6.99432L9.33807 19.0938H8.57102Z" fill="#5555FF"/>
<path d="M15.3381 10.3864L12.9943 19.0938H12.2273L14.571 10.3864H15.3381Z" fill="#5555FF"/>
<path d="M19.9886 8.38352V20.3438H19.2784V8.38352H19.9886Z" fill="#5555FF"/>
<path d="M32.983 18.1136C32.4905 18.1136 32.0585 17.9964 31.6868 17.7621C31.3175 17.5277 31.0286 17.1998 30.8203 16.7784C30.6143 16.357 30.5114 15.8646 30.5114 15.3011C30.5114 14.733 30.6143 14.237 30.8203 13.8132C31.0286 13.3894 31.3175 13.0604 31.6868 12.826C32.0585 12.5916 32.4905 12.4744 32.983 12.4744C33.4754 12.4744 33.9063 12.5916 34.2756 12.826C34.6473 13.0604 34.9361 13.3894 35.142 13.8132C35.3504 14.237 35.4545 14.733 35.4545 15.3011C35.4545 15.8646 35.3504 16.357 35.142 16.7784C34.9361 17.1998 34.6473 17.5277 34.2756 17.7621C33.9063 17.9964 33.4754 18.1136 32.983 18.1136ZM32.983 17.3608C33.357 17.3608 33.6648 17.2649 33.9062 17.0732C34.1477 16.8814 34.3265 16.6293 34.4425 16.3168C34.5585 16.0043 34.6165 15.6657 34.6165 15.3011C34.6165 14.9366 34.5585 14.5968 34.4425 14.282C34.3265 13.9671 34.1477 13.7126 33.9062 13.5185C33.6648 13.3243 33.357 13.2273 32.983 13.2273C32.6089 13.2273 32.3011 13.3243 32.0597 13.5185C31.8182 13.7126 31.6394 13.9671 31.5234 14.282C31.4074 14.5968 31.3494 14.9366 31.3494 15.3011C31.3494 15.6657 31.4074 16.0043 31.5234 16.3168C31.6394 16.6293 31.8182 16.8814 32.0597 17.0732C32.3011 17.2649 32.6089 17.3608 32.983 17.3608Z" fill="#5555FF"/>
<path d="M43.3778 18.0568C43.2027 18.0568 43.0523 17.9941 42.9268 17.8686C42.8014 17.7431 42.7386 17.5928 42.7386 17.4176C42.7386 17.2424 42.8014 17.0921 42.9268 16.9666C43.0523 16.8411 43.2027 16.7784 43.3778 16.7784C43.553 16.7784 43.7034 16.8411 43.8288 16.9666C43.9543 17.0921 44.017 17.2424 44.017 17.4176C44.017 17.5336 43.9875 17.6402 43.9283 17.7372C43.8714 17.8343 43.7945 17.9124 43.6974 17.9716C43.6027 18.0284 43.4962 18.0568 43.3778 18.0568Z" fill="#5555FF"/>
<path d="M52.5312 18V18.7812H47.9858V18H52.5312Z" fill="#0000AA"/>
<path d="M68.983 18.1136C68.4905 18.1136 68.0585 17.9964 67.6868 17.7621C67.3175 17.5277 67.0286 17.1998 66.8203 16.7784C66.6143 16.357 66.5114 15.8646 66.5114 15.3011C66.5114 14.733 66.6143 14.237 66.8203 13.8132C67.0286 13.3894 67.3175 13.0604 67.6868 12.826C68.0585 12.5916 68.4905 12.4744 68.983 12.4744C69.4754 12.4744 69.9063 12.5916 70.2756 12.826C70.6473 13.0604 70.9361 13.3894 71.142 13.8132C71.3504 14.237 71.4545 14.733 71.4545 15.3011C71.4545 15.8646 71.3504 16.357 71.142 16.7784C70.9361 17.1998 70.6473 17.5277 70.2756 17.7621C69.9063 17.9964 69.4754 18.1136 68.983 18.1136ZM68.983 17.3608C69.357 17.3608 69.6648 17.2649 69.9062 17.0732C70.1477 16.8814 70.3265 16.6293 70.4425 16.3168C70.5585 16.0043 70.6165 15.6657 70.6165 15.3011C70.6165 14.9366 70.5585 14.5968 70.4425 14.282C70.3265 13.9671 70.1477 13.7126 69.9062 13.5185C69.6648 13.3243 69.357 13.2273 68.983 13.2273C68.6089 13.2273 68.3011 13.3243 68.0597 13.5185C67.8182 13.7126 67.6394 13.9671 67.5234 14.282C67.4074 14.5968 67.3494 14.9366 67.3494 15.3011C67.3494 15.6657 67.4074 16.0043 67.5234 16.3168C67.6394 16.6293 67.8182 16.8814 68.0597 17.0732C68.3011 17.2649 68.6089 17.3608 68.983 17.3608Z" fill="#0000AA"/>
<path d="M79.0653 14.9318C79.0653 14.0369 79.1813 13.2143 79.4134 12.4638C79.6477 11.7109 79.9815 11.0185 80.4148 10.3864H81.1534C80.983 10.6207 80.8232 10.9096 80.674 11.2528C80.5272 11.5937 80.3982 11.969 80.2869 12.3786C80.1757 12.7857 80.0881 13.2071 80.0241 13.6428C79.9626 14.0784 79.9318 14.508 79.9318 14.9318C79.9318 15.4953 79.9863 16.067 80.0952 16.647C80.2041 17.227 80.3509 17.7656 80.5355 18.2628C80.7202 18.7599 80.9261 19.1648 81.1534 19.4773H80.4148C79.9815 18.8452 79.6477 18.1539 79.4134 17.4034C79.1813 16.6506 79.0653 15.8267 79.0653 14.9318Z" fill="#0000AA"/>
<path d="M88.5312 18V18.7812H83.9858V18H88.5312Z" fill="#0000AA"/>
<path d="M103.989 8.38352V20.3438H103.278V8.38352H103.989Z" fill="#0000AA"/>
<path d="M112.531 18V18.7812H107.986V18H112.531Z" fill="#0000AA"/>
<path d="M136.531 18V18.7812H131.986V18H136.531Z" fill="#0000AA"/>
<path d="M151.989 8.38352V20.3438H151.278V8.38352H151.989Z" fill="#535353"/>
<path d="M163.989 8.38352V20.3438H163.278V8.38352H163.989Z" fill="#535353"/>
<path d="M1.98864 18.3835V30.3438H1.27841V18.3835H1.98864Z" fill="#0000AA"/>
<path d="M19.9886 18.3835V30.3438H19.2784V18.3835H19.9886Z" fill="#0000AA"/>
<path d="M31.9886 18.3835V30.3438H31.2784V18.3835H31.9886Z" fill="#0000AA"/>
<path d="M43.9886 18.3835V30.3438H43.2784V18.3835H43.9886Z" fill="#0000AA"/>
<path d="M55.9886 18.3835V30.3438H55.2784V18.3835H55.9886Z" fill="#0000AA"/>
<path d="M67.9886 18.3835V30.3438H67.2784V18.3835H67.9886Z" fill="#0000AA"/>
<path d="M82.5312 28V28.7812H77.9858V28H82.5312Z" fill="#0000AA"/>
<path d="M88.5312 28V28.7812H83.9858V28H88.5312Z" fill="#0000AA"/>
<path d="M92.5568 24.9318C92.5568 25.8267 92.4396 26.6506 92.2053 27.4034C91.9732 28.1539 91.6406 28.8452 91.2074 29.4773H90.4688C90.6392 29.2429 90.7978 28.9541 90.9446 28.6108C91.0938 28.2699 91.224 27.8958 91.3352 27.4886C91.4465 27.0791 91.5329 26.6565 91.5945 26.2209C91.6584 25.7829 91.6903 25.3532 91.6903 24.9318C91.6903 24.3684 91.6359 23.7966 91.527 23.2166C91.4181 22.6366 91.2713 22.098 91.0866 21.6009C90.902 21.1037 90.696 20.6989 90.4688 20.3864H91.2074C91.6406 21.0185 91.9732 21.7109 92.2053 22.4638C92.4396 23.2143 92.5568 24.0369 92.5568 24.9318Z" fill="#0000AA"/>
<path d="M103.989 18.3835V30.3438H103.278V18.3835H103.989Z" fill="#535353"/>
<path d="M115.989 18.3835V30.3438H115.278V18.3835H115.989Z" fill="#535353"/>
<path d="M127.065 24.9318C127.065 24.0369 127.181 23.2143 127.413 22.4638C127.648 21.7109 127.982 21.0185 128.415 20.3864H129.153C128.983 20.6207 128.823 20.9096 128.674 21.2528C128.527 21.5937 128.398 21.969 128.287 22.3786C128.176 22.7857 128.088 23.2071 128.024 23.6428C127.963 24.0784 127.932 24.508 127.932 24.9318C127.932 25.4953 127.986 26.067 128.095 26.647C128.204 27.227 128.351 27.7656 128.536 28.2628C128.72 28.7599 128.926 29.1648 129.153 29.4773H128.415C127.982 28.8452 127.648 28.1539 127.413 27.4034C127.181 26.6506 127.065 25.8267 127.065 24.9318Z" fill="#535353"/>
<path d="M135.338 20.3864L132.994 29.0938H132.227L134.571 20.3864H135.338Z" fill="#535353"/>
<path d="M142.531 28V28.7812H137.986V28H142.531Z" fill="#535353"/>
<path d="M151.989 18.3835V30.3438H151.278V18.3835H151.989Z" fill="#535353"/>
<path d="M163.989 18.3835V30.3438H163.278V18.3835H163.989Z" fill="#535353"/>
</g>
<defs>
<clipPath id="clip0_178_524">
<rect width="174" height="40" fill="white"/>
</clipPath>
</defs>
</svg>
