<svg width="64" height="64" viewBox="0 0 1000 1000" fill="none" xmlns="http://www.w3.org/2000/svg">
<g clip-path="url(#clip0_177_365)">
<path d="M853.553 146.447C759.785 52.6784 632.608 0 500 0C367.392 0 240.215 52.6784 146.447 146.447C52.6784 240.215 0 367.392 0 500C0 632.608 52.6784 759.785 146.447 853.553L853.553 146.447Z" fill="#2E9551"/>
<path d="M853.553 146.447L146.447 853.553C240.215 947.322 367.392 1000 500 1000C632.608 1000 759.785 947.322 853.553 853.553C947.322 759.785 1000 632.608 1000 500C1000 367.392 947.322 240.215 853.553 146.447Z" fill="#3BB964"/>
<path d="M349.648 706C331.998 706 316.188 703.791 302.215 699.374C288.611 694.957 276.661 689.252 266.365 682.258C256.438 674.896 247.981 666.614 240.995 657.412C234.008 647.841 228.677 638.271 225 628.701L289.53 601.094C295.781 615.081 304.054 625.572 314.349 632.566C325.012 639.191 336.778 642.504 349.648 642.504C362.884 642.504 373.364 640.111 381.085 635.326C388.807 630.541 392.668 624.836 392.668 618.21C392.668 610.848 389.358 604.959 382.74 600.541C376.489 595.756 365.458 591.523 349.648 587.842L311.591 579.56C303.135 577.72 294.31 574.775 285.118 570.726C276.293 566.677 268.204 561.524 260.85 555.266C253.496 549.008 247.429 541.463 242.649 532.628C237.869 523.794 235.479 513.488 235.479 501.709C235.479 488.457 238.237 476.678 243.752 466.372C249.635 456.065 257.541 447.415 267.468 440.421C277.396 433.059 288.978 427.538 302.215 423.857C315.82 419.808 330.344 417.783 345.787 417.783C371.525 417.783 394.506 422.937 414.729 433.243C434.952 443.182 449.844 459.194 459.404 481.279L397.08 506.678C391.932 496.003 384.394 488.273 374.467 483.488C364.539 478.703 354.611 476.31 344.684 476.31C334.388 476.31 325.38 478.519 317.658 482.936C309.937 486.985 306.076 492.322 306.076 498.948C306.076 505.205 309.201 510.175 315.452 513.856C322.071 517.537 330.895 520.849 341.926 523.794L383.291 533.733C410.868 540.358 431.275 551.033 444.512 565.757C458.117 580.112 464.919 597.229 464.919 617.106C464.919 628.885 462.161 640.111 456.646 650.786C451.131 661.461 443.225 671.031 432.93 679.497C423.002 687.595 410.868 694.037 396.528 698.822C382.556 703.607 366.929 706 349.648 706Z" fill="white"/>
<path d="M638.873 706C621.959 706 605.781 703.607 590.338 698.822C574.895 694.037 560.739 686.859 547.869 677.289C535 667.718 523.786 656.123 514.226 642.504C504.666 628.516 497.128 612.32 491.613 593.916L561.658 566.309C566.806 586.186 575.814 602.75 588.683 616.001C601.552 628.885 618.466 635.326 639.425 635.326C647.146 635.326 654.5 634.406 661.486 632.566C668.84 630.357 675.275 627.412 680.79 623.731C686.673 619.682 691.269 614.713 694.579 608.824C697.888 602.934 699.542 596.124 699.542 588.394C699.542 581.033 698.255 574.407 695.682 568.517C693.108 562.628 688.695 557.106 682.445 551.953C676.562 546.8 668.656 541.831 658.729 537.045C649.169 532.26 637.219 527.291 622.879 522.138L598.611 513.303C587.948 509.623 577.101 504.653 566.07 498.396C555.407 492.138 545.663 484.592 536.839 475.758C528.014 466.924 520.66 456.617 514.777 444.838C509.262 432.691 506.504 419.072 506.504 403.98C506.504 388.52 509.446 374.164 515.329 360.913C521.579 347.294 530.22 335.515 541.251 325.576C552.649 315.27 566.07 307.356 581.513 301.834C597.324 295.945 614.789 293 633.909 293C653.765 293 670.862 295.761 685.202 301.282C699.91 306.435 712.228 313.245 722.155 321.711C732.451 329.809 740.724 338.828 746.975 348.766C753.225 358.705 757.822 368.091 760.763 376.925L695.13 404.532C691.453 393.489 684.651 383.551 674.723 374.717C665.163 365.882 651.926 361.465 635.012 361.465C618.834 361.465 605.413 365.33 594.75 373.06C584.087 380.422 578.756 390.176 578.756 402.324C578.756 414.102 583.903 424.225 594.199 432.691C604.494 440.789 620.856 448.703 643.286 456.433L668.105 464.715C683.915 470.237 698.255 476.678 711.125 484.04C724.362 491.034 735.576 499.5 744.768 509.439C754.328 519.377 761.498 530.788 766.278 543.671C771.426 556.186 774 570.726 774 587.29C774 607.903 769.772 625.756 761.315 640.848C753.225 655.571 742.746 667.718 729.877 677.289C717.008 686.859 702.484 694.037 686.305 698.822C670.127 703.607 654.316 706 638.873 706Z" fill="white"/>
</g>
<defs>
<clipPath id="clip0_177_365">
<rect width="1000" height="1000" fill="white"/>
</clipPath>
</defs>
</svg>
