<svg width="122" height="94" viewBox="0 0 122 94" fill="none" xmlns="http://www.w3.org/2000/svg">
<path d="M7.57895 13.6213C9.18144 18.5745 11.2389 23.3204 13.2713 28.1109L34.3141 13.1848C27.1639 11.2789 20.4289 8.46188 13.4821 5.93577C11.8742 5.35108 10.2323 4.90816 8.57558 4.48873C7.89572 4.31662 7.13085 4 6.41941 4C5.78822 4 5.85401 4.56857 5.85401 5.02538C5.85401 8.0348 6.65438 10.7636 7.57895 13.6213Z" fill="#1E1E1E"/>
<path d="M34.6605 13.2764C34.5449 13.2461 34.4295 13.2156 34.3141 13.1848M34.3141 13.1848C27.1639 11.2789 20.4289 8.46189 13.4821 5.93577C11.8742 5.35108 10.2323 4.90816 8.57558 4.48873C7.89572 4.31662 7.13085 4 6.41941 4C5.78822 4 5.85401 4.56857 5.85401 5.02538C5.85401 8.0348 6.65438 10.7636 7.57895 13.6213C9.18144 18.5745 11.2389 23.3204 13.2713 28.1109L34.3141 13.1848Z" stroke="white" stroke-width="3" stroke-linecap="round"/>
<path d="M83.7259 17.3492C83.2809 17.5843 82.9651 17.9279 82.6143 18.2787L93.8264 32.5957C95.5568 28.9426 97.5227 25.4974 99.6528 22.064C101.884 18.4683 103.683 14.4077 106.38 11.1106C106.682 10.7419 107.679 10.0167 106.61 10.4206C103.87 11.4558 100.974 12.0549 98.1483 12.8068C93.3668 14.0793 88.1425 15.0159 83.7259 17.3492Z" fill="#1E1E1E" stroke="white" stroke-width="3" stroke-linecap="round"/>
<path d="M60.8606 7.96729C61.828 8.00197 62.7883 8.06402 63.743 8.14984C67.0244 9.05707 70.3078 9.90306 73.4144 11.3405C76.3335 12.6912 79.1429 14.3169 81.7899 16.1416C87.4017 20.0102 91.8393 25.1319 95.8195 30.6215C101.59 38.5804 104.269 47.8029 102.058 57.521C100.931 62.4748 99.076 66.9383 95.6086 70.7168C91.7262 74.9477 86.8742 77.577 81.5408 79.562C69.1131 84.1873 55.1869 84.8103 42.1163 83.1939C34.2434 82.2203 26.9629 80.0639 19.9316 76.3612C13.9649 73.2192 8.7253 69.4664 6.62079 62.7821C3.01483 51.329 5.73048 39.973 11.7573 29.8836C17.8623 19.6634 28.5238 12.864 39.7684 9.61556C46.6491 7.62781 53.7566 7.7126 60.8606 7.96729Z" fill="#1E1E1E"/>
<path d="M80.1991 11.3788C73.7961 9.72957 67.4931 8.20507 60.8606 7.96729C53.7566 7.7126 46.6491 7.62781 39.7684 9.61556C28.5238 12.864 17.8623 19.6634 11.7573 29.8836C5.73048 39.973 3.01483 51.329 6.62079 62.7821C8.7253 69.4664 13.9649 73.2192 19.9316 76.3612C26.9629 80.0639 34.2434 82.2203 42.1163 83.1939C55.1869 84.8103 69.1131 84.1873 81.5408 79.562C86.8742 77.577 91.7262 74.9477 95.6086 70.7168C99.076 66.9383 100.931 62.4748 102.058 57.521C104.269 47.8029 101.59 38.5804 95.8195 30.6215C91.8393 25.1319 87.4017 20.0102 81.7899 16.1416C79.1429 14.3169 76.3335 12.6912 73.4144 11.3405C70.0574 9.78721 66.494 8.92454 62.9497 7.92895" stroke="white" stroke-width="3" stroke-linecap="round"/>
<path d="M13.2713 28.1109C11.2389 23.3204 9.18144 18.5745 7.57895 13.6213C6.65438 10.7636 5.85401 8.0348 5.85401 5.02538C5.85401 4.56857 5.78822 4 6.41941 4C7.13085 4 7.89572 4.31662 8.57558 4.48873C10.2323 4.90816 11.8742 5.35108 13.4821 5.93577C20.541 8.50265 27.3811 11.3698 34.6605 13.2764" stroke="white" stroke-width="3" stroke-linecap="round"/>
<path d="M37.7243 37.2549C37.1256 37.2549 36.1528 37.473 36.1528 38.2055C36.1528 38.9434 37.1085 38.5581 37.3363 38.1279C37.7222 37.3988 37.281 38.2421 37.1034 38.2928C36.8749 38.3581 37.5567 37.8392 36.8512 37.6041" stroke="white" stroke-width="3" stroke-linecap="round"/>
<path d="M67.0575 36.9058C67.0169 37.2308 65.92 38.4772 66.8829 38.4772C67.2101 38.4772 68.9113 38.0073 68.1051 37.6042" stroke="white" stroke-width="3" stroke-linecap="round"/>
<path d="M49.5245 51.3151C48.1134 51.6034 46.8449 52.4094 46.2925 54.7793C45.7752 56.9992 48.4477 57.2426 49.1547 57.28C50.4434 57.348 52.7932 56.4378 52.4072 53.5175C52.2421 52.2685 51.4105 51.4609 50.7775 50.971C50.0969 50.4442 49.4656 50.3305 48.7233 50.2827" stroke="white" stroke-width="3" stroke-linecap="round"/>
</svg>
