<svg width="266" height="210" viewBox="0 0 266 210" fill="none" xmlns="http://www.w3.org/2000/svg">
<path d="M8.63103 26.7379C12.7513 39.4731 18.0414 51.6755 23.2668 63.9925L77.371 25.6155C58.9867 20.715 41.6702 13.4722 23.8089 6.97714C19.6747 5.47382 15.4532 4.33501 11.1935 3.25661C9.4455 2.81407 7.47891 2 5.64967 2C4.02679 2 4.19595 3.46189 4.19595 4.63641C4.19595 12.3741 6.25383 19.3902 8.63103 26.7379Z" fill="#1E1E1E"/>
<path d="M78.2618 25.8509C77.9646 25.773 77.6676 25.6946 77.371 25.6155M77.371 25.6155C58.9867 20.715 41.6702 13.4722 23.8089 6.97714C19.6747 5.47382 15.4532 4.33501 11.1935 3.25661C9.4455 2.81407 7.47891 2 5.64967 2C4.02679 2 4.19595 3.46189 4.19595 4.63641C4.19595 12.3741 6.25383 19.3902 8.63103 26.7379C12.7513 39.4731 18.0414 51.6755 23.2668 63.9925L77.371 25.6155Z" stroke="white" stroke-width="3" stroke-linecap="round"/>
<path d="M204.415 36.3225C203.271 36.927 202.459 37.8106 201.557 38.7125L230.385 75.5237C234.834 66.1311 239.889 57.2728 245.366 48.4451C251.102 39.2001 255.727 28.7596 262.663 20.2823C263.438 19.3342 266.003 17.4697 263.254 18.5083C256.209 21.1698 248.762 22.7102 241.497 24.6435C229.203 27.9153 215.771 30.3233 204.415 36.3225Z" fill="#1E1E1E" stroke="white" stroke-width="3" stroke-linecap="round"/>
<path d="M145.626 12.2006C148.113 12.2897 150.582 12.4493 153.037 12.6699C161.474 15.0026 169.916 17.1777 177.903 20.8736C185.409 24.3465 192.632 28.5262 199.438 33.2179C213.867 43.1646 225.276 56.3334 235.51 70.4479C250.347 90.9114 257.235 114.624 251.55 139.611C248.653 152.347 243.883 163.824 234.968 173.539C224.986 184.417 212.51 191.177 198.798 196.281C166.844 208.173 131.038 209.775 97.4314 205.619C77.189 203.116 58.4697 197.571 40.3913 188.051C25.0502 179.973 11.5783 170.324 6.16729 153.138C-3.10417 123.69 3.87816 94.4918 19.374 68.5507C35.0708 42.2731 62.4832 24.7908 91.3947 16.4385C109.086 11.3277 127.36 11.5457 145.626 12.2006Z" fill="#1E1E1E"/>
<path d="M195.348 20.9722C178.885 16.7317 162.679 12.812 145.626 12.2006C127.36 11.5457 109.086 11.3277 91.3947 16.4385C62.4832 24.7908 35.0708 42.2731 19.374 68.5507C3.87816 94.4918 -3.10417 123.69 6.16729 153.138C11.5783 170.324 25.0502 179.973 40.3913 188.051C58.4697 197.571 77.189 203.116 97.4313 205.619C131.038 209.775 166.844 208.173 198.798 196.281C212.51 191.177 224.986 184.417 234.968 173.539C243.883 163.824 248.653 152.347 251.55 139.611C257.235 114.624 250.347 90.9114 235.51 70.4479C225.276 56.3334 213.867 43.1646 199.438 33.2179C192.632 28.5262 185.409 24.3465 177.903 20.8736C169.272 16.8799 160.11 14.6618 150.997 12.102" stroke="white" stroke-width="3" stroke-linecap="round"/>
<path d="M23.2668 63.9925C18.0414 51.6755 12.7513 39.4731 8.63103 26.7379C6.25383 19.3902 4.19595 12.3741 4.19595 4.63641C4.19595 3.46189 4.02679 2 5.64967 2C7.47891 2 9.4455 2.81407 11.1935 3.25661C15.4532 4.33501 19.6747 5.47382 23.8089 6.97714C41.9584 13.577 59.5454 20.949 78.2618 25.8509" stroke="white" stroke-width="3" stroke-linecap="round"/>
<path d="M86.139 87.5034C84.5998 87.5034 82.0986 88.0643 82.0986 89.9476C82.0986 91.8449 84.5559 90.8541 85.1414 89.7481C86.1338 87.8735 84.9994 90.0416 84.5428 90.1721C83.9552 90.3399 85.7081 89.0059 83.8944 88.4013" stroke="white" stroke-width="3" stroke-linecap="round"/>
<path d="M161.559 86.6055C161.455 87.4412 158.635 90.6458 161.11 90.6458C161.952 90.6458 166.326 89.4376 164.253 88.4012" stroke="white" stroke-width="3" stroke-linecap="round"/>
<path d="M116.479 123.654C112.851 124.396 109.59 126.468 108.17 132.561C106.84 138.269 113.711 138.895 115.529 138.991C118.842 139.166 124.884 136.826 123.891 129.317C123.467 126.106 121.329 124.029 119.701 122.77C117.951 121.415 116.328 121.123 114.42 121" stroke="white" stroke-width="3" stroke-linecap="round"/>
</svg>
