<svg width="677" height="130" viewBox="0 0 677 130" fill="none" xmlns="http://www.w3.org/2000/svg">
<g clip-path="url(#clip0_175_199)">
<rect x="50" y="120" width="627" height="10" rx="5" fill="white"/>
<path d="M174.704 114.056C167.536 114.056 161.488 111.688 156.56 106.952C151.696 102.152 149.264 96.1678 149.264 88.9998C149.264 81.8318 151.696 75.8798 156.56 71.1438C161.488 66.3438 167.536 63.9438 174.704 63.9438C179.632 63.9438 184.112 65.2238 188.144 67.7838C192.24 70.2798 195.344 73.6078 197.456 77.7678L186.032 83.9118C185.008 81.6078 183.504 79.7518 181.52 78.3438C179.6 76.9358 177.328 76.2318 174.704 76.2318C171.248 76.2318 168.336 77.4478 165.968 79.8798C163.664 82.3118 162.512 85.3518 162.512 88.9998C162.512 92.6478 163.664 95.6878 165.968 98.1198C168.336 100.552 171.248 101.768 174.704 101.768C177.328 101.768 179.6 101.064 181.52 99.6558C183.504 98.2478 185.008 96.3918 186.032 94.0878L197.456 100.232C195.344 104.392 192.24 107.752 188.144 110.312C184.112 112.808 179.632 114.056 174.704 114.056Z" fill="white"/>
<path d="M245.803 106.856C240.875 111.656 234.923 114.056 227.947 114.056C220.971 114.056 215.019 111.656 210.091 106.856C205.163 101.992 202.699 96.0398 202.699 88.9998C202.699 82.0238 205.163 76.1038 210.091 71.2398C215.019 66.3758 220.971 63.9438 227.947 63.9438C234.923 63.9438 240.875 66.3758 245.803 71.2398C250.731 76.1038 253.195 82.0238 253.195 88.9998C253.195 96.0398 250.731 101.992 245.803 106.856ZM227.947 101.768C231.339 101.768 234.155 100.584 236.395 98.2158C238.699 95.7838 239.851 92.7118 239.851 88.9998C239.851 85.2878 238.699 82.2478 236.395 79.8798C234.155 77.4478 231.339 76.2318 227.947 76.2318C224.491 76.2318 221.611 77.4478 219.307 79.8798C217.067 82.2478 215.947 85.2878 215.947 88.9998C215.947 92.7118 217.067 95.7838 219.307 98.2158C221.611 100.584 224.491 101.768 227.947 101.768Z" fill="white"/>
<path d="M262.679 113V64.9998H275.831V70.4718C278.775 66.1198 283.351 63.9438 289.559 63.9438C295.319 63.9438 299.831 65.8638 303.095 69.7038C306.423 73.4798 308.087 78.5358 308.087 84.8718V113H294.935V87.0798C294.935 83.5598 294.199 80.8398 292.727 78.9198C291.255 76.9358 289.175 75.9438 286.487 75.9438C283.287 75.9438 280.695 77.0958 278.711 79.3998C276.791 81.7038 275.831 85.0958 275.831 89.5758V113H262.679Z" fill="white"/>
<path d="M342.818 113.576C337.442 113.576 333.026 112.104 329.57 109.16C326.178 106.152 324.482 101.832 324.482 96.1998V76.5198H314.786V64.9998H324.482V51.6558H337.634V64.9998H351.17V76.5198H337.634V93.6078C337.634 96.5518 338.274 98.6638 339.554 99.9438C340.834 101.16 342.914 101.768 345.794 101.768C347.842 101.768 349.634 101.48 351.17 100.904V112.52C348.866 113.224 346.082 113.576 342.818 113.576Z" fill="white"/>
<path d="M379.386 114.056C373.05 114.056 367.706 111.592 363.354 106.664C359.002 101.736 356.826 95.8478 356.826 88.9998C356.826 82.1518 359.002 76.2638 363.354 71.3358C367.706 66.4078 373.05 63.9438 379.386 63.9438C382.458 63.9438 385.21 64.5838 387.642 65.8638C390.074 67.1438 391.93 68.6478 393.21 70.3758V64.9998H406.362V113H393.21V107.624C391.93 109.352 390.074 110.856 387.642 112.136C385.21 113.416 382.458 114.056 379.386 114.056ZM373.338 98.4078C375.578 100.84 378.522 102.056 382.17 102.056C385.818 102.056 388.73 100.84 390.906 98.4078C393.146 95.9758 394.266 92.8398 394.266 88.9998C394.266 85.1598 393.146 82.0238 390.906 79.5918C388.73 77.1598 385.818 75.9438 382.17 75.9438C378.522 75.9438 375.578 77.1598 373.338 79.5918C371.162 82.0238 370.074 85.1598 370.074 88.9998C370.074 92.8398 371.162 95.9758 373.338 98.4078Z" fill="white"/>
<path d="M441.516 114.056C434.348 114.056 428.3 111.688 423.372 106.952C418.508 102.152 416.076 96.1678 416.076 88.9998C416.076 81.8318 418.508 75.8798 423.372 71.1438C428.3 66.3438 434.348 63.9438 441.516 63.9438C446.444 63.9438 450.924 65.2238 454.956 67.7838C459.052 70.2798 462.156 73.6078 464.268 77.7678L452.844 83.9118C451.82 81.6078 450.316 79.7518 448.332 78.3438C446.412 76.9358 444.14 76.2318 441.516 76.2318C438.06 76.2318 435.148 77.4478 432.78 79.8798C430.476 82.3118 429.324 85.3518 429.324 88.9998C429.324 92.6478 430.476 95.6878 432.78 98.1198C435.148 100.552 438.06 101.768 441.516 101.768C444.14 101.768 446.412 101.064 448.332 99.6558C450.316 98.2478 451.82 96.3918 452.844 94.0878L464.268 100.232C462.156 104.392 459.052 107.752 454.956 110.312C450.924 112.808 446.444 114.056 441.516 114.056Z" fill="white"/>
<path d="M495.911 113.576C490.535 113.576 486.119 112.104 482.663 109.16C479.271 106.152 477.575 101.832 477.575 96.1998V76.5198H467.879V64.9998H477.575V51.6558H490.727V64.9998H504.263V76.5198H490.727V93.6078C490.727 96.5518 491.367 98.6638 492.647 99.9438C493.927 101.16 496.007 101.768 498.887 101.768C500.935 101.768 502.727 101.48 504.263 100.904V112.52C501.959 113.224 499.175 113.576 495.911 113.576Z" fill="white"/>
<path d="M595.972 113V87.3678C595.972 79.7518 593.476 75.9438 588.484 75.9438C585.604 75.9438 583.3 77.0318 581.572 79.2078C579.908 81.3838 579.012 84.6158 578.884 88.9038V113H565.732V87.3678C565.732 79.7518 563.236 75.9438 558.244 75.9438C555.3 75.9438 552.964 77.0958 551.236 79.3998C549.508 81.7038 548.644 85.0958 548.644 89.5758V113H535.492V64.9998H548.644V70.4718C551.652 66.1198 555.908 63.9438 561.412 63.9438C568.132 63.9438 573.092 66.8878 576.292 72.7758C577.7 70.0238 579.812 67.8798 582.628 66.3438C585.444 64.7438 588.292 63.9438 591.172 63.9438C596.868 63.9438 601.284 65.8318 604.42 69.6078C607.556 73.3838 609.124 78.5678 609.124 85.1598V113H595.972Z" fill="white"/>
<path d="M643.547 114.056C636.251 114.056 630.171 111.752 625.307 107.144C620.507 102.536 618.107 96.4878 618.107 88.9998C618.107 81.8318 620.507 75.8798 625.307 71.1438C630.107 66.3438 636.123 63.9438 643.355 63.9438C650.011 63.9438 655.611 66.0238 660.155 70.1838C664.699 74.2798 666.971 80.0718 666.971 87.5598C666.971 89.6718 666.907 91.1758 666.779 92.0718H630.875C631.259 95.2078 632.635 97.6718 635.003 99.4638C637.435 101.192 640.315 102.056 643.643 102.056C649.275 102.056 653.403 100.04 656.027 96.0078L665.819 103.304C660.891 110.472 653.467 114.056 643.547 114.056ZM631.355 83.1438H653.819C653.243 80.3918 651.931 78.3118 649.883 76.9038C647.899 75.4958 645.595 74.7918 642.971 74.7918C640.283 74.7918 637.819 75.4958 635.579 76.9038C633.339 78.3118 631.931 80.3918 631.355 83.1438Z" fill="white"/>
<g clip-path="url(#clip1_175_199)">
<path d="M67.3219 130.126H44.7734V100.082L56.8665 93.7207L67.3219 100.082V130.126Z" fill="#7D4533"/>
<path d="M89.2409 25.8237C92.894 25.8237 96.3264 26.5166 99.5391 27.9022C102.751 29.2879 105.554 31.1774 107.947 33.5708C110.341 35.9642 112.23 38.7668 113.616 41.979C115.002 45.1912 115.694 48.6241 115.694 52.2772V100.964L115.568 101.027H41.0577L26.6973 25.8237H89.2409Z" fill="#5092FF"/>
<path d="M26.6971 25.8237C30.3502 25.8237 33.7826 26.5166 36.9954 27.9022C40.2076 29.2879 42.9995 31.1774 45.3723 33.5708C47.7445 35.9642 49.6235 38.7668 51.0092 41.979C52.3948 45.1912 53.0876 48.6241 53.0876 52.2772V100.964L53.0247 101.027H0.369625L0.306641 100.964V52.2772C0.306641 48.6241 0.99947 45.1912 2.38513 41.979C3.77079 38.7668 5.64984 35.9642 8.02224 33.5708C10.3946 31.1774 13.187 29.2879 16.3992 27.9022C19.6114 26.5166 23.044 25.8237 26.6971 25.8237Z" fill="#3F5FFF"/>
<path d="M26.6974 30.3584C29.2168 30.3584 31.6208 30.7575 33.9094 31.5551C36.1975 32.3527 38.276 33.4759 40.1449 34.9245C42.0132 36.3732 43.6191 38.1161 44.9629 40.1522C46.3068 42.1889 47.2933 44.4251 47.9232 46.8603L12.211 96.4291H7.10924C6.47939 96.4291 5.94403 96.2192 5.50313 95.7993C5.06224 95.3794 4.8418 94.8545 4.8418 94.2247V52.277C4.8418 49.2537 5.40866 46.4089 6.54238 43.7423C7.6761 41.0763 9.2297 38.7565 11.2032 36.7828C13.1768 34.8091 15.4967 33.2451 18.163 32.0902C20.8294 30.9358 23.6742 30.3584 26.6974 30.3584Z" fill="#321B41"/>
<path d="M100.451 3.2124C101.459 3.2124 102.373 3.54849 103.192 4.22015C104.01 4.89182 104.419 5.7736 104.419 6.8655V17.6359C104.419 18.7278 104.01 19.6095 103.192 20.2812C102.373 20.9529 101.459 21.289 100.451 21.289H76.6433C75.6356 21.289 74.7326 20.9423 73.935 20.2495C73.1374 19.5566 72.7383 18.6854 72.7383 17.6359V6.8655C72.7383 5.81593 73.1374 4.94473 73.935 4.25139C74.7326 3.55907 75.6356 3.2124 76.6433 3.2124H100.451Z" fill="#F92F60"/>
<path d="M74.6273 0.37793C76.1389 0.37793 77.4303 0.902968 78.5011 1.95254C79.5718 3.00212 80.1069 4.28297 80.1069 5.7946V46.1047C81.7863 47.1124 83.1196 48.4563 84.1067 50.1357C85.0933 51.8151 85.5866 53.6416 85.5866 55.6153C85.5866 57.127 85.3034 58.5439 84.7365 59.8665C84.1697 61.1892 83.3821 62.3547 82.3744 63.3624C81.3666 64.3702 80.2017 65.1575 78.879 65.7243C77.5563 66.2912 76.1389 66.5746 74.6273 66.5746C73.1156 66.5746 71.6987 66.2912 70.3761 65.7243C69.0534 65.1575 67.8879 64.3702 66.8802 63.3624C65.8724 62.3547 65.0854 61.1892 64.5185 59.8665C63.9517 58.5439 63.668 57.127 63.668 55.6153C63.668 53.6416 64.1613 51.8151 65.1484 50.1357C66.1349 48.4563 67.4682 47.1124 69.1476 46.1047V5.7946C69.1476 4.28297 69.6832 3.00212 70.754 1.95254C71.8247 0.902968 73.1156 0.37793 74.6273 0.37793Z" fill="#D3D3D3"/>
<path d="M48.2999 48.75C48.3841 49.338 48.4576 49.9255 48.5206 50.5136C48.5836 51.1016 48.6148 51.6891 48.6148 52.2771V93.9729H11.9578C11.244 93.9729 10.6247 93.7314 10.0998 93.2485C9.57492 92.7657 9.3125 92.1673 9.3125 91.4535V51.2064C9.3125 50.4924 9.57492 49.9049 10.0998 49.4428C10.6247 48.9808 11.244 48.75 11.9578 48.75H48.2999Z" fill="#E1D8EC"/>
<path d="M48.3629 49.1909C48.447 49.6948 48.51 50.2092 48.5518 50.7338C48.5937 51.2588 48.6148 51.7733 48.6148 52.2772V74.6367C47.6912 75.1825 46.6623 75.4555 45.5286 75.4555C44.4367 75.4555 43.4083 75.1615 42.4423 74.5737L9.3125 54.2927C9.3125 53.7888 9.3125 53.2325 9.3125 52.6233C9.3125 52.0146 9.37548 51.4584 9.50145 50.9545C9.62742 50.4506 9.87936 50.0309 10.2573 49.6948C10.6352 49.3587 11.202 49.1909 11.9578 49.1909H48.3629Z" fill="#CDC4D6"/>
<path d="M47.8593 46.7344C48.3632 48.5821 48.6151 50.4293 48.6151 52.277V72.1801C47.6074 72.726 46.5784 72.9989 45.5289 72.9989C44.437 72.9989 43.4086 72.705 42.4426 72.1171L9.31278 51.8361C9.31278 51.2904 9.3023 50.7236 9.28129 50.1355C9.26027 49.5475 9.32326 49.0018 9.47024 48.4979C9.61722 47.9941 9.87964 47.5743 10.2575 47.2383C10.6355 46.9022 11.2023 46.7344 11.9581 46.7344H47.8593ZM48.6151 94.2247C48.6151 94.6866 48.4367 95.1695 48.08 95.6733C47.7227 96.1772 47.2924 96.4291 46.7886 96.4291H11.9581C11.2443 96.4291 10.625 96.1877 10.1001 95.7048C9.5752 95.222 9.31278 94.6236 9.31278 93.9098V91.3274L39.5453 72.81C40.5113 73.3978 41.4666 73.9857 42.4114 74.5735C43.3562 75.1614 44.3951 75.4553 45.5289 75.4553C46.6626 75.4553 47.6915 75.1824 48.6151 74.6365V94.2247Z" fill="#F3EEF8"/>
</g>
</g>
<defs>
<clipPath id="clip0_175_199">
<rect width="677" height="130" fill="white"/>
</clipPath>
<clipPath id="clip1_175_199">
<rect width="130" height="130" fill="white" transform="translate(-7)"/>
</clipPath>
</defs>
</svg>
