<svg width="696" height="131" viewBox="0 0 696 131" fill="none" xmlns="http://www.w3.org/2000/svg">
<g clip-path="url(#clip0_175_201)">
<rect x="69" y="107" width="627" height="10" rx="5" fill="black"/>
<path d="M184.488 100H171.336V28H184.488V57.472C187.432 53.12 192.008 50.944 198.216 50.944C203.976 50.944 208.488 52.864 211.752 56.704C215.08 60.48 216.744 65.536 216.744 71.872V100H203.592V74.08C203.592 70.56 202.856 67.84 201.384 65.92C199.912 63.936 197.832 62.944 195.144 62.944C191.944 62.944 189.352 64.096 187.368 66.4C185.448 68.704 184.488 72.096 184.488 76.576V100Z" fill="black"/>
<path d="M251.173 101.056C243.877 101.056 237.797 98.752 232.933 94.144C228.133 89.536 225.733 83.488 225.733 76C225.733 68.832 228.133 62.88 232.933 58.144C237.733 53.344 243.749 50.944 250.981 50.944C257.637 50.944 263.237 53.024 267.781 57.184C272.325 61.28 274.597 67.072 274.597 74.56C274.597 76.672 274.533 78.176 274.405 79.072H238.501C238.885 82.208 240.261 84.672 242.629 86.464C245.061 88.192 247.941 89.056 251.269 89.056C256.901 89.056 261.029 87.04 263.653 83.008L273.445 90.304C268.517 97.472 261.093 101.056 251.173 101.056ZM238.981 70.144H261.445C260.869 67.392 259.557 65.312 257.509 63.904C255.525 62.496 253.221 61.792 250.597 61.792C247.909 61.792 245.445 62.496 243.205 63.904C240.965 65.312 239.557 67.392 238.981 70.144Z" fill="black"/>
<path d="M284.305 100V28H297.457V100H284.305Z" fill="black"/>
<path d="M310.086 100V28H323.238V100H310.086Z" fill="black"/>
<path d="M375.803 93.856C370.875 98.656 364.923 101.056 357.947 101.056C350.971 101.056 345.019 98.656 340.091 93.856C335.163 88.992 332.699 83.04 332.699 76C332.699 69.024 335.163 63.104 340.091 58.24C345.019 53.376 350.971 50.944 357.947 50.944C364.923 50.944 370.875 53.376 375.803 58.24C380.731 63.104 383.195 69.024 383.195 76C383.195 83.04 380.731 88.992 375.803 93.856ZM357.947 88.768C361.339 88.768 364.155 87.584 366.395 85.216C368.699 82.784 369.851 79.712 369.851 76C369.851 72.288 368.699 69.248 366.395 66.88C364.155 64.448 361.339 63.232 357.947 63.232C354.491 63.232 351.611 64.448 349.307 66.88C347.067 69.248 345.947 72.288 345.947 76C345.947 79.712 347.067 82.784 349.307 85.216C351.611 87.584 354.491 88.768 357.947 88.768Z" fill="black"/>
<path d="M436.162 100.576C430.786 100.576 426.37 99.104 422.914 96.16C419.522 93.152 417.826 88.832 417.826 83.2V63.52H408.13V52H417.826V38.656H430.978V52H444.514V63.52H430.978V80.608C430.978 83.552 431.618 85.664 432.898 86.944C434.178 88.16 436.258 88.768 439.138 88.768C441.186 88.768 442.978 88.48 444.514 87.904V99.52C442.21 100.224 439.426 100.576 436.162 100.576Z" fill="black"/>
<path d="M467.05 100H453.898V28H467.05V57.472C469.994 53.12 474.57 50.944 480.778 50.944C486.538 50.944 491.05 52.864 494.314 56.704C497.642 60.48 499.306 65.536 499.306 71.872V100H486.154V74.08C486.154 70.56 485.418 67.84 483.946 65.92C482.474 63.936 480.394 62.944 477.706 62.944C474.506 62.944 471.914 64.096 469.93 66.4C468.01 68.704 467.05 72.096 467.05 76.576V100Z" fill="black"/>
<path d="M533.735 101.056C526.439 101.056 520.359 98.752 515.495 94.144C510.695 89.536 508.295 83.488 508.295 76C508.295 68.832 510.695 62.88 515.495 58.144C520.295 53.344 526.311 50.944 533.543 50.944C540.199 50.944 545.799 53.024 550.343 57.184C554.887 61.28 557.159 67.072 557.159 74.56C557.159 76.672 557.095 78.176 556.967 79.072H521.063C521.447 82.208 522.823 84.672 525.191 86.464C527.623 88.192 530.503 89.056 533.831 89.056C539.463 89.056 543.591 87.04 546.215 83.008L556.007 90.304C551.079 97.472 543.655 101.056 533.735 101.056ZM521.543 70.144H544.007C543.431 67.392 542.119 65.312 540.071 63.904C538.087 62.496 535.783 61.792 533.159 61.792C530.471 61.792 528.007 62.496 525.767 63.904C523.527 65.312 522.119 67.392 521.543 70.144Z" fill="black"/>
<path d="M566.867 100V52H580.019V59.68C580.851 57.312 582.355 55.36 584.531 53.824C586.771 52.224 589.235 51.424 591.923 51.424C593.587 51.424 595.059 51.616 596.339 52V65.344C594.227 64.64 592.243 64.288 590.387 64.288C587.251 64.288 584.723 65.44 582.803 67.744C580.947 69.984 580.019 73.088 580.019 77.056V100H566.867Z" fill="black"/>
<path d="M625.423 101.056C618.127 101.056 612.047 98.752 607.183 94.144C602.383 89.536 599.983 83.488 599.983 76C599.983 68.832 602.383 62.88 607.183 58.144C611.983 53.344 617.999 50.944 625.231 50.944C631.887 50.944 637.487 53.024 642.031 57.184C646.575 61.28 648.847 67.072 648.847 74.56C648.847 76.672 648.783 78.176 648.655 79.072H612.751C613.135 82.208 614.511 84.672 616.879 86.464C619.311 88.192 622.191 89.056 625.519 89.056C631.151 89.056 635.279 87.04 637.903 83.008L647.695 90.304C642.767 97.472 635.343 101.056 625.423 101.056ZM613.231 70.144H635.695C635.119 67.392 633.807 65.312 631.759 63.904C629.775 62.496 627.471 61.792 624.847 61.792C622.159 61.792 619.695 62.496 617.455 63.904C615.215 65.312 613.807 67.392 613.231 70.144Z" fill="black"/>
<path d="M661.915 75.424L659.419 57.376V31.84H672.667V57.376L670.075 75.424H661.915ZM665.947 100.768C663.259 100.768 660.987 99.84 659.131 97.984C657.275 96.128 656.347 93.856 656.347 91.168C656.347 88.48 657.275 86.208 659.131 84.352C660.987 82.496 663.259 81.568 665.947 81.568C668.571 81.568 670.811 82.528 672.667 84.448C674.587 86.304 675.547 88.544 675.547 91.168C675.547 93.792 674.587 96.064 672.667 97.984C670.811 99.84 668.571 100.768 665.947 100.768Z" fill="black"/>
<path d="M104.186 58.3234C104.708 57.1058 105.045 55.6376 105.198 53.9195C105.35 52.2019 105.491 50.4076 105.622 48.5376C105.752 46.6675 105.937 44.808 106.176 42.9594C106.416 41.1113 106.883 39.4584 107.579 38.0012C108.275 36.5445 109.286 35.3593 110.613 34.4459C111.939 33.5326 113.755 33.0759 116.06 33.0759C117.408 33.0759 118.713 33.3802 119.974 33.9892C121.236 34.5983 122.356 35.4135 123.334 36.4354C124.313 37.4579 125.085 38.6212 125.65 39.926C126.215 41.2308 126.498 42.5575 126.498 43.9056V44.2318C126.281 47.1895 126.009 50.1356 125.683 53.0714C125.357 56.0072 125.193 58.9539 125.193 61.9116C125.193 65.6084 125.542 69.1966 126.237 72.676C126.933 76.1554 127.651 79.6566 128.39 83.1795C128.869 85.2671 129.314 87.3874 129.728 89.5403C130.141 91.6932 130.347 93.8352 130.347 95.9663C130.347 99.6197 129.858 103.067 128.88 106.307C127.901 109.547 126.476 112.537 124.606 115.277C122.736 118.017 120.474 120.453 117.821 122.584C115.169 124.715 112.189 126.498 108.884 127.933C106.796 128.847 104.621 129.564 102.36 130.086C100.098 130.608 97.8149 130.869 95.5096 130.869C93.3348 130.869 90.9862 130.576 88.4638 129.988C85.9414 129.401 83.4514 128.597 80.9942 127.575C78.5365 126.553 76.1879 125.378 73.9484 124.052C71.7083 122.725 69.7835 121.323 68.1745 119.844L46.6456 100.207C45.8627 99.511 44.9603 98.6846 43.9384 97.7278C42.916 96.771 41.8612 95.7489 40.7741 94.6616C39.6869 93.5743 38.6212 92.4217 37.5774 91.2039C36.5335 89.9861 35.5873 88.7683 34.7397 87.5505C33.8911 86.3327 33.2173 85.1149 32.7173 83.8971C32.2168 82.6793 31.9668 81.5267 31.9668 80.4394C31.9668 79.0912 32.2711 77.8516 32.8801 76.7208C33.4892 75.59 34.283 74.6114 35.2616 73.7851C36.2402 72.9587 37.3493 72.3063 38.5888 71.8279C39.8284 71.3495 41.0783 71.1103 42.3398 71.1103C43.166 71.1103 43.8622 71.1973 44.4275 71.3712C44.2537 71.1973 43.9275 70.7514 43.4489 70.0338C42.9703 69.3162 42.4593 68.5333 41.916 67.6852C41.3722 66.8371 40.8722 66.0325 40.4155 65.2714C39.9588 64.5103 39.665 63.9992 39.5345 63.7383C39.0559 62.7814 38.6645 61.7702 38.3602 60.7046C38.0559 59.6392 37.9036 58.5624 37.9036 57.4753C37.9036 56.0834 38.1426 54.8115 38.6212 53.6586C39.0998 52.5062 39.7736 51.5166 40.6436 50.6904C41.5136 49.8643 42.5246 49.2223 43.6775 48.7656C44.8299 48.309 46.1018 48.0809 47.4937 48.0809C48.8856 48.0809 50.288 48.4071 51.7019 49.0595C53.1152 49.7119 54.2566 50.6033 55.1267 51.7343C54.6481 50.9081 54.0609 49.7338 53.3652 48.2114C52.6695 46.6889 51.9952 45.0908 51.3428 43.416C50.6904 41.7417 50.1252 40.1436 49.6466 38.6212C49.168 37.0988 48.9289 35.9464 48.9289 35.1636C48.9289 33.8155 49.1899 32.554 49.7118 31.3797C50.2337 30.2054 50.9294 29.1939 51.7995 28.3458C52.6695 27.4977 53.7024 26.8239 54.8986 26.3234C56.0943 25.8234 57.3448 25.5734 58.6496 25.5734C59.4758 25.5734 60.3134 25.682 61.1615 25.8996C62.0096 26.1172 62.8139 26.4215 63.5754 26.813C64.3363 27.2044 65.0211 27.6934 65.6301 28.2806C66.2392 28.8677 66.7392 29.553 67.1306 30.3359C68.1745 32.5107 69.175 34.685 70.1316 36.8598C71.0883 39.0346 72.0669 41.2308 73.0674 43.4489C72.7193 42.5356 72.2845 41.4484 71.7626 40.187C71.2407 38.9255 70.7407 37.6207 70.2621 36.2726C69.7835 34.9245 69.3817 33.5978 69.0555 32.293C68.7293 30.9883 68.5659 29.8792 68.5659 28.9658C68.5659 27.5306 68.7945 26.2148 69.2512 25.0186C69.7078 23.8229 70.3493 22.7791 71.1755 21.8871C72.0017 20.9957 73.0022 20.311 74.1765 19.8324C75.3508 19.3538 76.6555 19.1147 78.0908 19.1147C81.7875 19.1147 84.4842 20.7676 86.1804 24.0729L86.2457 24.2034C86.9414 25.7258 87.7243 27.4544 88.5943 29.3896C89.4643 31.3254 90.3886 33.3588 91.3672 35.4897C92.3458 37.6207 93.3677 39.7736 94.4334 41.9484C95.4987 44.1232 96.5754 46.2218 97.6625 48.2437C98.7497 50.2666 99.8483 52.1476 100.957 53.8872C102.066 55.6267 103.143 57.1058 104.186 58.3234Z" fill="#FDD641"/>
<path d="M74.7644 19.5713C73.9382 20.3975 73.362 21.4523 73.0358 22.7351C72.7096 24.0185 72.5462 25.2038 72.5462 26.2909C72.5462 27.8133 72.8615 29.5962 73.4925 31.6405C74.1229 33.6848 74.9168 35.8268 75.8734 38.0663C76.8301 40.3063 77.8525 42.5464 78.9397 44.7859C80.0268 47.026 81.0492 49.0593 82.0059 50.886C82.9626 52.7127 83.7564 54.2565 84.3874 55.518C85.0178 56.7795 85.3331 57.5623 85.3331 57.8666C85.3331 58.4757 85.1045 59.019 84.6483 59.4976C84.1911 59.976 83.6369 60.2152 82.9845 60.2152C82.1144 60.2152 81.4407 59.8238 80.9621 59.0409C80.1792 57.8666 79.4073 56.5728 78.6463 55.1589C77.8849 53.7456 77.1453 52.2889 76.4282 50.7879C75.7101 49.2879 75.0144 47.7979 74.3406 46.3193C73.6663 44.8407 73.0462 43.4707 72.481 42.2092L73.0681 43.4488C72.72 42.5354 72.2853 41.4483 71.7634 40.1868C71.2414 38.9254 70.7415 37.6206 70.2629 36.2725C69.7843 34.9244 69.3824 33.5977 69.0562 32.2929C68.73 30.9881 68.5666 29.8791 68.5666 28.9657C68.5666 26.7476 69.0995 24.8337 70.1653 23.2247C71.2305 21.6156 72.7639 20.3975 74.7644 19.5713ZM61.1294 86.7023C60.738 86.7023 60.227 86.4631 59.5965 85.9846C58.9655 85.5062 58.3132 84.9517 57.6394 84.321C56.9651 83.6904 56.3236 83.0597 55.7146 82.4291C55.1055 81.7985 54.6274 81.3309 54.2793 81.0265C52.8007 79.8087 51.1155 78.2756 49.2235 76.4271C47.3316 74.5787 45.5482 72.5889 43.8739 70.4577C42.1991 68.3266 40.7858 66.1302 39.6334 63.8686C38.4805 61.607 37.9043 59.4757 37.9043 57.4752C37.9043 56.649 38.0129 55.8009 38.2305 54.9308C38.4481 54.0608 38.7743 53.2346 39.2091 52.4518C39.6438 51.6689 40.1877 50.9841 40.8401 50.3965C41.4924 49.8098 42.232 49.3636 43.0582 49.0593C42.5796 49.8855 42.2534 50.8098 42.0796 51.8317C41.9058 52.8542 41.8186 53.8218 41.8186 54.7351C41.8186 56.9966 42.3515 59.2043 43.4173 61.3569C44.4825 63.5098 45.8201 65.5757 47.4292 67.5546C49.0383 69.5335 50.7783 71.4037 52.6483 73.1652C54.5183 74.9266 56.2584 76.525 57.8674 77.9602C59.4765 79.3955 60.8142 80.6568 61.8799 81.7441C62.9451 82.8314 63.478 83.7013 63.478 84.3537C63.478 84.9626 63.2499 85.5062 62.7933 85.9846C62.3366 86.4631 61.7818 86.7023 61.1294 86.7023ZM54.8012 26.3561C54.4098 26.6171 54.0945 26.9757 53.8555 27.4323C53.6159 27.889 53.4093 28.3895 53.2355 28.9328C53.0617 29.4767 52.9422 30.0205 52.8769 30.5638C52.8117 31.1076 52.7788 31.5972 52.7788 32.0319C52.7788 33.5544 53.0617 35.2287 53.6269 37.0554C54.1921 38.882 54.8993 40.7197 55.7474 42.5678C56.5955 44.4164 57.487 46.1998 58.4222 47.9174C59.357 49.6355 60.216 51.147 60.9989 52.4518C62.0427 54.1913 63.1085 55.9204 64.1956 57.638C65.2828 59.3561 66.3918 61.0416 67.5228 62.6943C68.0014 63.4337 68.5124 64.1404 69.0562 64.8146C69.5995 65.4887 70.1105 66.1954 70.5891 66.9348C70.7195 67.1523 70.8281 67.3697 70.9153 67.5872C71.0024 67.8047 71.0457 68.0439 71.0457 68.3049C71.0457 68.9572 70.8177 69.5118 70.361 69.9684C69.9043 70.4251 69.3495 70.6535 68.6971 70.6535C67.9576 70.6535 67.3271 70.3273 66.8052 69.6749C65.7614 68.3701 64.6633 66.8914 63.5109 65.2386C62.358 63.5859 61.2275 61.8897 60.1185 60.15C59.0094 58.4104 57.9436 56.6704 56.9217 54.9308C55.8993 53.1913 55.0188 51.5603 54.2793 50.0379C53.4093 48.385 52.6264 46.6674 51.9307 44.884C51.235 43.1007 50.5388 41.3392 49.843 39.5997C49.234 38.1211 48.9297 36.642 48.9297 35.1634C48.9297 34.2501 49.0711 33.3367 49.354 32.4234C49.6364 31.51 50.0388 30.6619 50.5607 29.8791C51.0826 29.0962 51.7026 28.3895 52.4202 27.7585C53.1379 27.1281 53.9312 26.6604 54.8012 26.3561ZM104.122 59.9543C104.122 59.6933 104.122 59.4104 104.122 59.1061C104.122 58.8019 104.165 58.519 104.252 58.258C104.513 56.9966 104.742 55.7899 104.938 54.637C105.133 53.4846 105.296 52.2341 105.427 50.886C105.601 49.0593 105.764 47.1022 105.916 45.0145C106.068 42.9269 106.46 41.0021 107.091 39.2406C107.721 37.4791 108.711 36.0115 110.059 34.8372C111.407 33.6629 113.364 33.0758 115.93 33.0758H116.648C116.083 33.1629 115.582 33.391 115.147 33.7605C114.713 34.1306 114.321 34.511 113.973 34.9025C112.755 36.2072 111.853 37.9144 111.266 40.0235C110.679 42.133 110.243 44.3731 109.961 46.7431C109.678 49.1136 109.482 51.4732 109.374 53.8218C109.265 56.1704 109.08 58.2147 108.819 59.9543C108.601 61.3895 107.753 62.1071 106.275 62.1071C105.796 62.1071 105.318 61.8788 104.84 61.4221C104.361 60.9655 104.122 60.4762 104.122 59.9543Z" fill="#FFB02C"/>
<path d="M104.774 27.9875C104.122 27.9875 103.567 27.7589 103.111 27.3023C102.654 26.8456 102.425 26.2913 102.425 25.6389C102.425 22.6813 101.871 19.9303 100.762 17.3859C99.6529 14.8416 98.1414 12.6235 96.2276 10.7316C94.3137 8.83963 92.0742 7.36105 89.508 6.2953C86.9417 5.23008 84.2017 4.69721 81.2878 4.69721C80.6355 4.69721 80.0812 4.46913 79.6245 4.01194C79.1678 3.55579 78.9392 3.001 78.9392 2.34861C78.9392 1.69622 79.1678 1.14194 79.6245 0.684747C80.0812 0.228596 80.6355 0 81.2878 0C86.7246 0 91.4975 1.35906 95.6081 4.07718C99.7176 6.79582 102.839 10.6559 104.97 15.6574C105.579 17.1798 106.09 18.8108 106.503 20.5503C106.916 22.2898 107.123 23.986 107.123 25.6389C107.123 26.2913 106.894 26.8456 106.438 27.3023C105.981 27.7589 105.426 27.9875 104.774 27.9875ZM96.9452 37.0558C96.2928 37.0558 95.7386 36.8272 95.2819 36.3705C94.8252 35.9138 94.5966 35.3596 94.5966 34.7072C94.5966 32.0976 94.0747 29.5204 93.0309 26.9761C91.987 24.4318 90.6603 22.1813 89.0513 20.2241C86.8332 17.5274 84.3108 15.5488 81.4836 14.2874C78.6564 13.0259 75.5249 12.3954 72.0891 12.3954C71.4368 12.3954 70.8825 12.1668 70.4258 11.7101C69.9691 11.2535 69.7405 10.6992 69.7405 10.0468C69.7405 9.39442 69.9691 8.83963 70.4258 8.38295C70.8825 7.92628 71.4368 7.69821 72.0891 7.69821C76.2211 7.69821 80.0373 8.47011 83.5389 10.0139C87.0398 11.5583 90.0951 13.9612 92.7047 17.2231C94.6619 19.5717 96.2495 22.3008 97.4671 25.4103C98.6848 28.5204 99.2938 31.619 99.2938 34.7072C99.2938 35.3162 99.0548 35.8596 98.5762 36.3381C98.0976 36.8167 97.5543 37.0558 96.9452 37.0558ZM10.1773 70.4582C10.8297 70.4582 11.3842 70.6865 11.8409 71.1432C12.2976 71.5998 12.5259 72.1544 12.5259 72.8068C12.5259 75.3293 13.037 77.8954 14.059 80.505C15.0811 83.1145 16.375 85.3979 17.9407 87.3551C20.0284 90.0081 22.5401 91.9979 25.4761 93.3244C28.4119 94.651 31.5538 95.3142 34.9029 95.3142C35.512 95.3142 36.0553 95.5426 36.5339 95.9993C37.0125 96.4559 37.2515 96.9887 37.2515 97.5976C37.2515 98.25 37.0234 98.8045 36.5667 99.2612C36.1101 99.7179 35.5553 99.9462 34.9029 99.9462C30.8147 99.9462 27.0199 99.1416 23.5187 97.5324C20.0175 95.9232 16.9622 93.5093 14.3526 90.2908C12.3954 87.8552 10.8188 85.1152 9.62276 82.0707C8.42669 79.0262 7.82869 75.9382 7.82869 72.8068C7.82869 72.1979 8.06788 71.6542 8.54631 71.1758C9.02475 70.6974 9.56838 70.4582 10.1773 70.4582ZM2.34861 79.4612C3.001 79.4612 3.55553 79.6895 4.0122 80.1462C4.46887 80.6028 4.69721 81.1574 4.69721 81.8098C4.69721 84.7673 5.24089 87.5182 6.32819 90.0625C7.41549 92.6068 8.89427 94.8358 10.7644 96.7495C12.6346 98.6632 14.8419 100.164 17.3862 101.251C19.9305 102.338 22.6814 102.882 25.6389 102.882C26.2913 102.882 26.8456 103.11 27.3028 103.567C27.759 104.024 27.9875 104.578 27.9875 105.231C27.9875 105.883 27.759 106.437 27.3028 106.894C26.8456 107.351 26.2913 107.579 25.6389 107.579C22.029 107.579 18.6692 106.905 15.5595 105.557C12.4498 104.209 9.74238 102.371 7.43725 100.044C5.13212 97.7172 3.31634 94.988 1.98979 91.8566C0.663246 88.7251 0 85.3761 0 81.8098C0 81.1574 0.228337 80.6028 0.68501 80.1462C1.14168 79.6895 1.69622 79.4612 2.34861 79.4612Z" fill="#5092FF"/>
</g>
<defs>
<clipPath id="clip0_175_201">
<rect width="696" height="131" fill="white"/>
</clipPath>
</defs>
</svg>
