<svg width="684" height="112" viewBox="0 0 684 112" fill="none" xmlns="http://www.w3.org/2000/svg">
<g clip-path="url(#clip0_176_345)">
<rect x="59" y="101" width="625" height="10" rx="5" fill="black"/>
<g clip-path="url(#clip1_176_345)">
<path d="M64.8708 5.31534C66.3756 3.72491 68.1378 2.51003 70.1585 1.67173C72.1791 0.833438 74.2854 0.414551 76.4779 0.414551H113.556C115.104 0.414551 116.641 0.833438 118.167 1.67173C119.693 2.51003 120.821 3.63876 121.552 5.05741C121.853 5.65943 122.025 6.48689 122.068 7.53979C122.111 8.5932 122.133 9.464 122.133 10.1517C122.133 11.2696 122.111 12.3658 122.068 13.4403C122.025 14.5149 122.004 15.6111 122.004 16.729V17.5673L125.099 86.1784V86.5653C125.099 88.113 124.777 89.5639 124.132 90.918C123.487 92.2722 122.638 93.4544 121.585 94.4646C120.531 95.4749 119.306 96.2809 117.909 96.8828C116.512 97.4847 115.061 97.7856 113.556 97.7856H16.1852C14.6806 97.7856 13.2297 97.4847 11.8326 96.8828C10.4354 96.2809 9.21022 95.4749 8.15696 94.4646C7.10371 93.4544 6.25468 92.2722 5.60984 90.918C4.965 89.5639 4.64258 88.113 4.64258 86.5653V86.1784L7.73782 17.5673V16.729C7.73782 15.6111 7.7163 14.5041 7.67333 13.4078C7.63036 12.3116 7.60885 11.2051 7.60885 10.0872C7.60885 9.78642 7.60885 9.39951 7.60885 8.92646C7.60885 8.4534 7.63036 7.98086 7.67333 7.5078C7.7163 7.03475 7.78079 6.58336 7.86678 6.15364C7.95278 5.72392 8.06024 5.35816 8.18921 5.05741C8.92004 3.59594 10.0377 2.45638 11.5424 1.63975C13.047 0.823122 14.5946 0.414551 16.1852 0.414551H53.2636C55.4561 0.414551 57.5624 0.833438 59.5831 1.67173C61.6037 2.51003 63.366 3.72491 64.8708 5.31534Z" fill="#B4ACBC"/>
<path d="M72.8671 107.007C72.0504 108.425 70.9217 109.554 69.4819 110.392C68.0416 111.23 66.5048 111.65 64.871 111.65C63.2373 111.65 61.7005 111.23 60.2607 110.392C58.8204 109.554 57.6705 108.425 56.8105 107.007H6.96429C6.01854 107.007 5.12649 106.824 4.28819 106.459C3.4499 106.093 2.70833 105.599 2.06349 104.975C1.41865 104.352 0.913508 103.621 0.548115 102.783C0.182722 101.945 0 101.053 0 100.107V95.1417C0 94.3249 0.17194 93.2716 0.515873 91.9819C0.859806 90.6923 1.34344 89.4456 1.96677 88.2419C2.5901 87.0382 3.32093 86.0064 4.15923 85.1466C4.99752 84.2868 5.93254 83.8569 6.96429 83.8569H122.778C123.81 83.8569 124.745 84.2868 125.583 85.1466C126.421 86.0064 127.152 87.0382 127.776 88.2419C128.399 89.4456 128.882 90.6923 129.226 91.9819C129.57 93.2716 129.742 94.3249 129.742 95.1417V100.042C129.742 101.031 129.559 101.945 129.194 102.783C128.828 103.621 128.334 104.352 127.711 104.975C127.087 105.599 126.346 106.093 125.486 106.459C124.626 106.824 123.723 107.007 122.778 107.007H72.8671Z" fill="#0074BA"/>
<path d="M6.96429 14.3433H55.5853V18.9861H74.1567V14.3433H122.778C123.723 14.3433 124.616 14.5259 125.454 14.8911C126.292 15.2569 127.034 15.7402 127.679 16.3423C128.323 16.9443 128.828 17.6748 129.194 18.5347C129.559 19.3947 129.742 20.2975 129.742 21.2431V95.3998C129.742 96.3886 129.559 97.3021 129.194 98.1404C128.828 98.9787 128.334 99.7095 127.711 100.333C127.087 100.956 126.346 101.451 125.486 101.816C124.626 102.181 123.723 102.364 122.778 102.364H72.8671C72.0504 103.783 70.9217 104.911 69.4819 105.75C68.0416 106.588 66.5048 107.007 64.871 107.007C63.2373 107.007 61.7005 106.588 60.2607 105.75C58.8204 104.911 57.6705 103.783 56.8105 102.364H6.96429C6.01854 102.364 5.12649 102.181 4.28819 101.816C3.4499 101.451 2.70833 100.967 2.06349 100.365C1.41865 99.7632 0.913508 99.0432 0.548115 98.2049C0.182722 97.3666 0 96.4531 0 95.4643V21.2431C0 20.2975 0.182722 19.3947 0.548115 18.5347C0.913508 17.6748 1.41865 16.9443 2.06349 16.3423C2.70833 15.7402 3.4499 15.2569 4.28819 14.8911C5.12649 14.5259 6.01854 14.3433 6.96429 14.3433ZM71.8353 95.4643C71.8353 96.41 71.6527 97.3021 71.2875 98.1404C70.9217 98.9787 70.4167 99.7095 69.7718 100.333C69.127 100.956 68.3857 101.451 67.5474 101.816C66.7091 102.181 65.8166 102.364 64.871 102.364C63.9254 102.364 63.0335 102.181 62.1952 101.816C61.3569 101.451 60.6151 100.967 59.9702 100.365C59.3254 99.7632 58.8204 99.0432 58.4551 98.2049C58.0894 97.3666 57.9067 96.4531 57.9067 95.4643C57.9067 94.5185 58.0894 93.6158 58.4551 92.756C58.8204 91.8962 59.3146 91.1546 59.9383 90.5313C60.5614 89.9079 61.2924 89.4135 62.1307 89.0481C62.969 88.6827 63.8821 88.5 64.871 88.5C65.8166 88.5 66.7091 88.6827 67.5474 89.0481C68.3857 89.4135 69.127 89.9187 69.7718 90.5635C70.4167 91.2083 70.9217 91.9499 71.2875 92.7882C71.6527 93.6265 71.8353 94.5185 71.8353 95.4643Z" fill="#00A6ED"/>
<path d="M50.9422 18.9862H78.7993V5.05762H112.138C113.298 5.05762 114.395 5.32639 115.426 5.86341C116.458 6.40095 117.296 7.16393 117.941 8.15286L125.099 18.9862V86.1787C125.099 87.1244 124.916 88.0165 124.551 88.8547C124.185 89.693 123.691 90.4346 123.068 91.0795C122.444 91.7243 121.714 92.2294 120.875 92.5948C120.037 92.9602 119.145 93.1429 118.199 93.1429H11.5424C10.5966 93.1429 9.70458 92.9602 8.86629 92.5948C8.02799 92.2294 7.29716 91.7243 6.67383 91.0795C6.0505 90.4346 5.55609 89.693 5.19069 88.8547C4.8253 88.0165 4.64258 87.1244 4.64258 86.1787V18.9862L11.8003 8.15286C12.4452 7.16393 13.2835 6.40095 14.3152 5.86341C15.3469 5.32639 16.4432 5.05762 17.6039 5.05762H50.9422V18.9862Z" fill="#B4ACBC"/>
<path d="M16.1858 5.05762H53.2642C54.8546 5.05762 56.3594 5.35837 57.7781 5.9604C59.1967 6.56242 60.4328 7.38988 61.4862 8.44277C62.5391 9.49619 63.3665 10.7322 63.9686 12.1509C64.5706 13.5695 64.8713 15.0743 64.8713 16.6648V93.1429C64.2693 91.9392 63.689 90.7785 63.1303 89.6608C62.5716 88.5431 61.9051 87.5543 61.1313 86.6945C60.3575 85.8347 59.4438 85.1469 58.3909 84.631C57.3375 84.1152 56.037 83.8572 54.4894 83.8572H16.1858C14.9391 83.8572 13.8537 83.3951 12.9294 82.4708C12.0051 81.5465 11.543 80.4611 11.543 79.2144V9.70047C11.543 8.45361 12.0051 7.36821 12.9294 6.44377C13.8537 5.51984 14.9391 5.05762 16.1858 5.05762Z" fill="#F3EEF8"/>
<path d="M76.4791 5.05762H113.557C114.804 5.05762 115.89 5.51984 116.814 6.44377C117.738 7.36821 118.2 8.45361 118.2 9.70047V79.2144C118.2 80.4611 117.738 81.5465 116.814 82.4708C115.89 83.3951 114.804 83.8572 113.557 83.8572H75.2539C73.6201 83.8572 72.0725 84.2764 70.611 85.1147C69.1495 85.953 68.01 87.0814 67.1934 88.5001V9.70047C68.3113 8.23901 69.6866 7.09944 71.3203 6.28282C72.9541 5.46619 74.6735 5.05762 76.4791 5.05762Z" fill="#F3EEF8"/>
</g>
<path d="M222.48 91.576V65.944C222.48 58.328 219.984 54.52 214.992 54.52C212.112 54.52 209.808 55.608 208.08 57.784C206.416 59.96 205.52 63.192 205.392 67.48V91.576H192.24V65.944C192.24 58.328 189.744 54.52 184.752 54.52C181.808 54.52 179.472 55.672 177.744 57.976C176.016 60.28 175.152 63.672 175.152 68.152V91.576H162V43.576H175.152V49.048C178.16 44.696 182.416 42.52 187.92 42.52C194.64 42.52 199.6 45.464 202.8 51.352C204.208 48.6 206.32 46.456 209.136 44.92C211.952 43.32 214.8 42.52 217.68 42.52C223.376 42.52 227.792 44.408 230.928 48.184C234.064 51.96 235.632 57.144 235.632 63.736V91.576H222.48Z" fill="black"/>
<path d="M264.521 111.64H250.217L260.297 88.888L240.137 43.576H254.537L267.401 74.68L280.169 43.576H294.665L264.521 111.64Z" fill="black"/>
<path d="M333.871 111.64H320.719V43.576H333.871V48.952C335.087 47.224 336.943 45.72 339.439 44.44C341.935 43.16 344.719 42.52 347.791 42.52C354.127 42.52 359.471 44.984 363.823 49.912C368.175 54.84 370.351 60.728 370.351 67.576C370.351 74.424 368.175 80.312 363.823 85.24C359.471 90.168 354.127 92.632 347.791 92.632C344.719 92.632 341.935 91.992 339.439 90.712C336.943 89.432 335.087 87.928 333.871 86.2V111.64ZM336.079 76.984C338.319 79.416 341.263 80.632 344.911 80.632C348.559 80.632 351.471 79.416 353.647 76.984C355.887 74.552 357.007 71.416 357.007 67.576C357.007 63.736 355.887 60.6 353.647 58.168C351.471 55.736 348.559 54.52 344.911 54.52C341.263 54.52 338.319 55.736 336.079 58.168C333.903 60.6 332.815 63.736 332.815 67.576C332.815 71.416 333.903 74.552 336.079 76.984Z" fill="black"/>
<path d="M379.969 91.576V43.576H393.121V51.256C393.953 48.888 395.457 46.936 397.633 45.4C399.873 43.8 402.337 43 405.025 43C406.689 43 408.161 43.192 409.441 43.576V56.92C407.329 56.216 405.345 55.864 403.489 55.864C400.353 55.864 397.825 57.016 395.905 59.32C394.049 61.56 393.121 64.664 393.121 68.632V91.576H379.969Z" fill="black"/>
<path d="M456.092 85.432C451.164 90.232 445.212 92.632 438.236 92.632C431.26 92.632 425.308 90.232 420.38 85.432C415.452 80.568 412.988 74.616 412.988 67.576C412.988 60.6 415.452 54.68 420.38 49.816C425.308 44.952 431.26 42.52 438.236 42.52C445.212 42.52 451.164 44.952 456.092 49.816C461.02 54.68 463.484 60.6 463.484 67.576C463.484 74.616 461.02 80.568 456.092 85.432ZM438.236 80.344C441.628 80.344 444.444 79.16 446.684 76.792C448.988 74.36 450.14 71.288 450.14 67.576C450.14 63.864 448.988 60.824 446.684 58.456C444.444 56.024 441.628 54.808 438.236 54.808C434.78 54.808 431.9 56.024 429.596 58.456C427.356 60.824 426.236 63.864 426.236 67.576C426.236 71.288 427.356 74.36 429.596 76.792C431.9 79.16 434.78 80.344 438.236 80.344Z" fill="black"/>
<path d="M486.889 43.576V90.224C486.889 95.856 485.193 100.144 481.801 103.088C478.409 106.096 474.153 107.6 469.033 107.6C466.729 107.6 464.937 107.472 463.657 107.216V95.984C464.553 96.112 465.385 96.176 466.153 96.176C471.209 96.176 473.737 93.488 473.737 88.112V43.576H486.889ZM480.265 35.704C478.025 35.704 476.073 34.904 474.409 33.304C472.745 31.64 471.913 29.656 471.913 27.352C471.913 25.048 472.745 23.096 474.409 21.496C476.073 19.832 478.025 19 480.265 19C482.633 19 484.617 19.832 486.217 21.496C487.881 23.096 488.713 25.048 488.713 27.352C488.713 29.656 487.881 31.64 486.217 33.304C484.617 34.904 482.633 35.704 480.265 35.704Z" fill="black"/>
<path d="M521.962 92.632C514.666 92.632 508.586 90.328 503.722 85.72C498.922 81.112 496.522 75.064 496.522 67.576C496.522 60.408 498.922 54.456 503.722 49.72C508.522 44.92 514.538 42.52 521.77 42.52C528.426 42.52 534.026 44.6 538.57 48.76C543.114 52.856 545.386 58.648 545.386 66.136C545.386 68.248 545.322 69.752 545.194 70.648H509.29C509.674 73.784 511.05 76.248 513.418 78.04C515.85 79.768 518.73 80.632 522.058 80.632C527.69 80.632 531.818 78.616 534.442 74.584L544.234 81.88C539.306 89.048 531.882 92.632 521.962 92.632ZM509.77 61.72H532.234C531.658 58.968 530.346 56.888 528.298 55.48C526.314 54.072 524.01 53.368 521.386 53.368C518.698 53.368 516.234 54.072 513.994 55.48C511.754 56.888 510.346 58.968 509.77 61.72Z" fill="black"/>
<path d="M577.462 92.632C570.294 92.632 564.246 90.264 559.318 85.528C554.454 80.728 552.022 74.744 552.022 67.576C552.022 60.408 554.454 54.456 559.318 49.72C564.246 44.92 570.294 42.52 577.462 42.52C582.39 42.52 586.87 43.8 590.902 46.36C594.998 48.856 598.102 52.184 600.214 56.344L588.79 62.488C587.766 60.184 586.262 58.328 584.278 56.92C582.358 55.512 580.086 54.808 577.462 54.808C574.006 54.808 571.094 56.024 568.726 58.456C566.422 60.888 565.27 63.928 565.27 67.576C565.27 71.224 566.422 74.264 568.726 76.696C571.094 79.128 574.006 80.344 577.462 80.344C580.086 80.344 582.358 79.64 584.278 78.232C586.262 76.824 587.766 74.968 588.79 72.664L600.214 78.808C598.102 82.968 594.998 86.328 590.902 88.888C586.87 91.384 582.39 92.632 577.462 92.632Z" fill="black"/>
<path d="M631.857 92.152C626.481 92.152 622.065 90.68 618.609 87.736C615.217 84.728 613.521 80.408 613.521 74.776V55.096H603.825V43.576H613.521V30.232H626.673V43.576H640.209V55.096H626.673V72.184C626.673 75.128 627.313 77.24 628.593 78.52C629.873 79.736 631.953 80.344 634.833 80.344C636.881 80.344 638.673 80.056 640.209 79.48V91.096C637.905 91.8 635.121 92.152 631.857 92.152Z" fill="black"/>
<path d="M665.722 92.632C656.634 92.632 650.042 89.56 645.946 83.416L654.97 75.736C657.274 79.448 660.858 81.304 665.722 81.304C667.194 81.304 668.442 81.016 669.466 80.44C670.49 79.864 671.002 79 671.002 77.848C671.002 76.824 670.554 75.992 669.658 75.352C668.826 74.648 667.13 73.944 664.57 73.24L661.018 72.376C656.602 71.224 653.242 69.304 650.938 66.616C648.698 63.928 647.642 60.728 647.77 57.016C647.898 52.664 649.626 49.176 652.954 46.552C656.346 43.864 660.634 42.52 665.818 42.52C673.178 42.52 678.714 45.208 682.426 50.584L673.786 57.592C671.546 54.776 668.826 53.368 665.626 53.368C664.346 53.368 663.226 53.656 662.266 54.232C661.306 54.808 660.826 55.608 660.826 56.632C660.826 58.552 662.394 59.928 665.53 60.76L670.042 62.104C679.322 64.6 683.962 69.56 683.962 76.984C683.962 81.528 682.234 85.272 678.778 88.216C675.322 91.16 670.97 92.632 665.722 92.632Z" fill="black"/>
</g>
<defs>
<clipPath id="clip0_176_345">
<rect width="684" height="112" fill="white"/>
</clipPath>
<clipPath id="clip1_176_345">
<rect width="130" height="130" fill="white" transform="translate(0 -9)"/>
</clipPath>
</defs>
</svg>
