<svg width="692" height="131" viewBox="0 0 692 131" fill="none" xmlns="http://www.w3.org/2000/svg">
<rect x="65" y="107" width="627" height="10" rx="5" fill="black"/>
<g clip-path="url(#clip0_176_357)">
<path d="M120.456 84.636C120.585 85.1519 120.811 86.1192 121.134 87.5378C121.456 88.9565 121.843 90.6653 122.294 92.6643C122.746 94.6633 123.24 96.845 123.778 99.2094C124.315 101.574 124.863 103.971 125.422 106.399C125.98 108.828 126.518 111.182 127.034 113.46C127.55 115.739 128.012 117.792 128.42 119.619C128.828 121.446 129.151 122.961 129.388 124.165C129.624 125.368 129.742 126.078 129.742 126.293C129.742 126.852 129.591 127.292 129.291 127.615C128.99 127.937 128.624 128.174 128.194 128.324C127.765 128.475 127.302 128.571 126.808 128.614C126.314 128.657 125.873 128.679 125.486 128.679H4.25595C3.86905 128.679 3.42839 128.657 2.93403 128.614C2.43967 128.571 1.9775 128.475 1.54762 128.324C1.11774 128.174 0.752298 127.937 0.451389 127.615C0.15048 127.292 0 126.852 0 126.293C0 126.078 0.0215119 125.927 0.0644841 125.841L9.22123 84.636L46.2996 81.5408C48.1052 81.4118 49.7498 81.2506 51.2329 81.0572C52.716 80.8637 54.1667 80.6918 55.5853 80.5413C57.004 80.3908 58.4551 80.2618 59.9383 80.1544C61.4214 80.0469 63.0655 79.9932 64.871 79.9932C66.6766 79.9932 68.3212 80.0469 69.8043 80.1544C71.2875 80.2618 72.7273 80.3908 74.1248 80.5413C75.5217 80.6918 76.9621 80.8637 78.4452 81.0572C79.9283 81.2506 81.5724 81.4118 83.378 81.5408L120.456 84.636Z" fill="#D3D3D3"/>
<path d="M115.877 1.19336C117.124 1.19336 118.199 1.65558 119.102 2.57951C120.004 3.50395 120.456 4.58935 120.456 5.83622V84.5713H9.2207V5.83622C9.2207 4.58935 9.68282 3.50395 10.6071 2.57951C11.5314 1.65558 12.6169 1.19336 13.8636 1.19336H115.877Z" fill="#7167A4"/>
<path d="M13.8633 78.768V6.99714C13.8633 6.65305 13.9707 6.37397 14.1857 6.15885C14.4007 5.94373 14.6801 5.83643 15.024 5.83643H114.716C115.061 5.83643 115.34 5.94373 115.555 6.15885C115.77 6.37397 115.877 6.65305 115.877 6.99714V78.768C115.877 79.1119 115.77 79.3913 115.555 79.6063C115.34 79.8212 115.061 79.9287 114.716 79.9287H15.024C14.6801 79.9287 14.4007 79.8212 14.1857 79.6063C13.9707 79.3913 13.8633 79.1119 13.8633 78.768Z" fill="#26C9FC"/>
<path d="M120.456 105.916C120.456 106.389 120.285 106.808 119.94 107.173C119.596 107.539 119.188 107.721 118.715 107.721H11.0268C10.5539 107.721 10.1455 107.539 9.80159 107.173C9.45765 106.808 9.28571 106.389 9.28571 105.916C9.28571 105.744 9.36093 105.292 9.51141 104.562C9.66189 103.831 9.84456 102.949 10.0595 101.918C10.2745 100.886 10.5216 99.7682 10.8011 98.5646C11.0805 97.3609 11.3492 96.2216 11.6071 95.1469C11.8651 94.0722 12.08 93.1156 12.252 92.2774C12.4239 91.4391 12.5529 90.8694 12.6389 90.5685C12.8539 89.6657 13.4342 89.2144 14.38 89.2144H115.362C116.308 89.2144 116.888 89.6657 117.103 90.5685C117.146 90.8694 117.265 91.4391 117.458 92.2774C117.652 93.1156 117.877 94.0722 118.135 95.1469C118.393 96.2216 118.662 97.3609 118.941 98.5646C119.22 99.7682 119.467 100.886 119.683 101.918C119.898 102.949 120.08 103.831 120.231 104.562C120.381 105.292 120.456 105.744 120.456 105.916ZM28.631 105.464L29.0823 101.982H22.5694L21.9891 105.464H28.631ZM37.6587 105.464L37.9167 101.982H31.4038L31.0169 105.464H37.6587ZM46.1706 105.464L46.2996 101.982H40.2381L39.9802 105.464H46.1706ZM54.747 105.464L54.876 101.982H48.621L48.4921 105.464H54.747ZM63.7103 105.464V101.982H57.1974L57.0685 105.464H63.7103ZM72.6736 105.464L72.5446 101.982H66.0317V105.464H72.6736ZM81.25 105.464L81.121 101.982H74.8661L74.995 105.464H81.25ZM89.7619 105.464L89.504 101.982H83.4425L83.5714 105.464H89.7619ZM98.7252 105.464L98.3383 101.982H91.8254L92.0833 105.464H98.7252ZM107.753 105.464L107.173 101.982H100.66L101.111 105.464H107.753ZM115.878 105.464L115.298 101.982H109.494L110.074 105.464H115.878ZM114.33 96.1786H108.527L109.107 99.6608H114.911L114.33 96.1786ZM113.557 91.5358H107.753L108.14 93.8572H113.943L113.557 91.5358ZM99.37 91.5358L99.628 93.8572H105.818L105.432 91.5358H99.37ZM90.9226 91.5358L91.1161 93.8572H97.3065L96.9841 91.5358H90.9226ZM82.9911 91.5358L83.12 93.8572H88.7946L88.6012 91.5358H82.9911ZM74.4147 91.5358L74.5437 93.8572H80.7986L80.6696 91.5358H74.4147ZM66.0317 91.5358V93.8572H72.2222L72.0933 91.5358H66.0317ZM57.6488 91.5358L57.5198 93.8572H63.7103V91.5358H57.6488ZM49.0724 91.5358L48.9435 93.8572H55.1984L55.3274 91.5358H49.0724ZM41.1409 91.5358L40.9474 93.8572H46.622L46.751 91.5358H41.1409ZM32.6935 91.5358L32.4355 93.8572H38.626L38.8194 91.5358H32.6935ZM24.3105 91.5358L23.9236 93.8572H30.1141L30.372 91.5358H24.3105ZM16.1855 91.5358L15.7986 93.8572H21.6022L21.9891 91.5358H16.1855ZM14.8313 99.6608H20.6349L21.2153 96.1786H15.4117L14.8313 99.6608ZM13.8641 105.464H19.6677L20.248 101.982H14.4444L13.8641 105.464ZM106.786 99.6608L106.205 96.1786H99.9504L100.337 99.6608H106.786ZM98.0159 99.6608L97.5645 96.1786H91.3095L91.6319 99.6608H98.0159ZM89.3105 99.6608L88.9881 96.1786H83.1845L83.3135 99.6608H89.3105ZM80.9921 99.6608L80.8631 96.1786H74.6081L74.7371 99.6608H80.9921ZM72.4157 99.6608L72.2867 96.1786H66.0317V99.6608H72.4157ZM23.5367 96.1786L22.9563 99.6608H29.4048L29.7917 96.1786H23.5367ZM32.1131 96.1786L31.7262 99.6608H38.1101L38.4325 96.1786H32.1131ZM40.754 96.1786L40.4315 99.6608H46.3641L46.5575 96.1786H40.754ZM48.879 96.1786L48.6855 99.6608H54.9405L55.1339 96.1786H48.879ZM57.4554 96.1786L57.2619 99.6608H63.7103V96.1786H57.4554ZM125.551 126.293C126.324 126.293 127.045 126.099 127.711 125.712C128.377 125.325 128.882 124.767 129.226 124.036C129.355 124.509 129.473 124.96 129.581 125.39C129.688 125.82 129.742 126.271 129.742 126.744C129.742 127.905 129.333 128.894 128.517 129.71C127.7 130.527 126.711 130.936 125.551 130.936H4.19147C3.03075 130.936 2.04198 130.527 1.2252 129.71C0.408417 128.894 0 127.905 0 126.744C0 126.314 0.0644841 125.874 0.193452 125.422C0.322421 124.971 0.429877 124.53 0.515873 124.1C0.859806 124.788 1.37568 125.325 2.06349 125.712C2.75131 126.099 3.46063 126.293 4.19147 126.293H125.551ZM40.8829 121.65H88.8591C89.2032 121.65 89.4823 121.542 89.6974 121.327C89.9125 121.112 90.0198 120.833 90.0198 120.489C90.0198 120.36 89.9337 119.952 89.7619 119.264C89.5901 118.576 89.3967 117.824 89.1815 117.007C88.9664 116.19 88.7627 115.416 88.5692 114.686C88.3758 113.955 88.2571 113.482 88.2143 113.267C88.0425 112.665 87.6767 112.364 87.1181 112.364H42.624C42.022 112.364 41.6567 112.665 41.5278 113.267C41.485 113.482 41.3668 113.955 41.1734 114.686C40.9799 115.416 40.7756 116.19 40.5605 117.007C40.3454 117.824 40.1519 118.576 39.9802 119.264C39.8084 119.952 39.7222 120.36 39.7222 120.489C39.7222 120.833 39.8295 121.112 40.0446 121.327C40.2598 121.542 40.5388 121.65 40.8829 121.65Z" fill="#9B9B9B"/>
</g>
<path d="M209.816 105V79.3678C209.816 71.7518 207.32 67.9438 202.328 67.9438C199.448 67.9438 197.144 69.0318 195.416 71.2078C193.752 73.3838 192.856 76.6158 192.728 80.9038V105H179.576V79.3678C179.576 71.7518 177.08 67.9438 172.088 67.9438C169.144 67.9438 166.808 69.0958 165.08 71.3998C163.352 73.7038 162.488 77.0958 162.488 81.5758V105H149.336V56.9998H162.488V62.4718C165.496 58.1198 169.752 55.9438 175.256 55.9438C181.976 55.9438 186.936 58.8878 190.136 64.7758C191.544 62.0238 193.656 59.8798 196.472 58.3438C199.288 56.7438 202.136 55.9438 205.016 55.9438C210.712 55.9438 215.128 57.8318 218.264 61.6078C221.4 65.3838 222.968 70.5678 222.968 77.1598V105H209.816Z" fill="black"/>
<path d="M251.857 125.064H237.553L247.633 102.312L227.473 56.9998H241.873L254.737 88.1038L267.505 56.9998H282.001L251.857 125.064Z" fill="black"/>
<path d="M321.207 125.064H308.055V56.9998H321.207V62.3758C322.423 60.6478 324.279 59.1438 326.775 57.8638C329.271 56.5838 332.055 55.9438 335.127 55.9438C341.463 55.9438 346.807 58.4078 351.159 63.3358C355.511 68.2638 357.687 74.1518 357.687 80.9998C357.687 87.8478 355.511 93.7358 351.159 98.6638C346.807 103.592 341.463 106.056 335.127 106.056C332.055 106.056 329.271 105.416 326.775 104.136C324.279 102.856 322.423 101.352 321.207 99.6238V125.064ZM323.415 90.4078C325.655 92.8398 328.599 94.0558 332.247 94.0558C335.895 94.0558 338.807 92.8398 340.983 90.4078C343.223 87.9758 344.343 84.8398 344.343 80.9998C344.343 77.1598 343.223 74.0238 340.983 71.5918C338.807 69.1598 335.895 67.9438 332.247 67.9438C328.599 67.9438 325.655 69.1598 323.415 71.5918C321.239 74.0238 320.151 77.1598 320.151 80.9998C320.151 84.8398 321.239 87.9758 323.415 90.4078Z" fill="black"/>
<path d="M389.673 106.056C382.505 106.056 376.457 103.688 371.529 98.9518C366.665 94.1518 364.233 88.1678 364.233 80.9998C364.233 73.8318 366.665 67.8798 371.529 63.1438C376.457 58.3438 382.505 55.9438 389.673 55.9438C394.601 55.9438 399.081 57.2238 403.113 59.7838C407.209 62.2798 410.313 65.6078 412.425 69.7678L401.001 75.9118C399.977 73.6078 398.473 71.7518 396.489 70.3438C394.569 68.9358 392.297 68.2318 389.673 68.2318C386.217 68.2318 383.305 69.4478 380.937 71.8798C378.633 74.3118 377.481 77.3518 377.481 80.9998C377.481 84.6478 378.633 87.6878 380.937 90.1198C383.305 92.5518 386.217 93.7678 389.673 93.7678C392.297 93.7678 394.569 93.0638 396.489 91.6558C398.473 90.2478 399.977 88.3918 401.001 86.0878L412.425 92.2318C410.313 96.3918 407.209 99.7518 403.113 102.312C399.081 104.808 394.601 106.056 389.673 106.056Z" fill="black"/>
<path d="M458.808 106.056C449.72 106.056 443.128 102.984 439.032 96.8398L448.056 89.1598C450.36 92.8718 453.944 94.7278 458.808 94.7278C460.28 94.7278 461.528 94.4398 462.552 93.8638C463.576 93.2878 464.088 92.4238 464.088 91.2718C464.088 90.2478 463.64 89.4158 462.744 88.7758C461.912 88.0718 460.216 87.3678 457.656 86.6638L454.104 85.7998C449.688 84.6478 446.328 82.7278 444.024 80.0398C441.784 77.3518 440.728 74.1518 440.856 70.4398C440.984 66.0878 442.712 62.5998 446.04 59.9758C449.432 57.2878 453.72 55.9438 458.904 55.9438C466.264 55.9438 471.8 58.6318 475.512 64.0078L466.872 71.0158C464.632 68.1998 461.912 66.7918 458.712 66.7918C457.432 66.7918 456.312 67.0798 455.352 67.6558C454.392 68.2318 453.912 69.0318 453.912 70.0558C453.912 71.9758 455.48 73.3518 458.616 74.1838L463.128 75.5278C472.408 78.0238 477.048 82.9838 477.048 90.4078C477.048 94.9518 475.32 98.6958 471.864 101.64C468.408 104.584 464.056 106.056 458.808 106.056Z" fill="black"/>
<path d="M509.11 106.056C501.814 106.056 495.734 103.752 490.87 99.1438C486.07 94.5358 483.67 88.4878 483.67 80.9998C483.67 73.8318 486.07 67.8798 490.87 63.1438C495.67 58.3438 501.686 55.9438 508.918 55.9438C515.574 55.9438 521.174 58.0238 525.718 62.1838C530.262 66.2798 532.534 72.0718 532.534 79.5598C532.534 81.6718 532.47 83.1758 532.342 84.0718H496.438C496.822 87.2078 498.198 89.6718 500.566 91.4638C502.998 93.1918 505.878 94.0558 509.206 94.0558C514.838 94.0558 518.966 92.0398 521.59 88.0078L531.382 95.3038C526.454 102.472 519.03 106.056 509.11 106.056ZM496.918 75.1438H519.382C518.806 72.3918 517.494 70.3118 515.446 68.9038C513.462 67.4958 511.158 66.7918 508.534 66.7918C505.846 66.7918 503.382 67.4958 501.142 68.9038C498.902 70.3118 497.494 72.3918 496.918 75.1438Z" fill="black"/>
<path d="M564.63 105.576C559.254 105.576 554.838 104.104 551.382 101.16C547.99 98.1518 546.294 93.8318 546.294 88.1998V68.5198H536.598V56.9998H546.294V43.6558H559.446V56.9998H572.982V68.5198H559.446V85.6078C559.446 88.5518 560.086 90.6638 561.366 91.9438C562.646 93.1598 564.726 93.7678 567.606 93.7678C569.654 93.7678 571.446 93.4798 572.982 92.9038V104.52C570.678 105.224 567.894 105.576 564.63 105.576Z" fill="black"/>
<path d="M599.839 106.056C594.143 106.056 589.695 104.136 586.495 100.296C583.359 96.4558 581.791 91.3038 581.791 84.8398V56.9998H594.943V82.6318C594.943 90.2478 597.663 94.0558 603.103 94.0558C606.175 94.0558 608.575 92.9038 610.303 90.5998C612.095 88.2958 612.991 84.9038 612.991 80.4238V56.9998H626.143V105H612.991V99.5278C610.047 103.88 605.663 106.056 599.839 106.056Z" fill="black"/>
<path d="M651.957 125.064H638.805V56.9998H651.957V62.3758C653.173 60.6478 655.029 59.1438 657.525 57.8638C660.021 56.5838 662.805 55.9438 665.877 55.9438C672.213 55.9438 677.557 58.4078 681.909 63.3358C686.261 68.2638 688.437 74.1518 688.437 80.9998C688.437 87.8478 686.261 93.7358 681.909 98.6638C677.557 103.592 672.213 106.056 665.877 106.056C662.805 106.056 660.021 105.416 657.525 104.136C655.029 102.856 653.173 101.352 651.957 99.6238V125.064ZM654.165 90.4078C656.405 92.8398 659.349 94.0558 662.997 94.0558C666.645 94.0558 669.557 92.8398 671.733 90.4078C673.973 87.9758 675.093 84.8398 675.093 80.9998C675.093 77.1598 673.973 74.0238 671.733 71.5918C669.557 69.1598 666.645 67.9438 662.997 67.9438C659.349 67.9438 656.405 69.1598 654.165 71.5918C651.989 74.0238 650.901 77.1598 650.901 80.9998C650.901 84.8398 651.989 87.9758 654.165 90.4078Z" fill="black"/>
<defs>
<clipPath id="clip0_176_357">
<rect width="130" height="130" fill="white" transform="translate(0 1)"/>
</clipPath>
</defs>
</svg>
