<svg width="706" height="130" viewBox="0 0 706 130" fill="none" xmlns="http://www.w3.org/2000/svg">
<g clip-path="url(#clip0_176_257)">
<rect x="44" y="120" width="627" height="10" rx="5" fill="white"/>
<path d="M187.424 111L178.4 83.736L169.472 111H156.416L140.48 63H154.496L163.616 93.72L173.312 63H183.392L193.184 93.72L202.208 63H216.32L200.48 111H187.424Z" fill="white"/>
<path d="M236.27 111H223.118V39H236.27V68.472C239.214 64.12 243.79 61.944 249.998 61.944C255.758 61.944 260.27 63.864 263.534 67.704C266.862 71.48 268.526 76.536 268.526 82.872V111H255.374V85.08C255.374 81.56 254.638 78.84 253.166 76.92C251.694 74.936 249.614 73.944 246.926 73.944C243.726 73.944 241.134 75.096 239.15 77.4C237.23 79.704 236.27 83.096 236.27 87.576V111Z" fill="white"/>
<path d="M297.42 131.064H283.116L293.196 108.312L273.036 63H287.436L300.3 94.104L313.068 63H327.564L297.42 131.064Z" fill="white"/>
<path d="M351.986 60.12L362.93 42.84H370.514L363.602 57.432C365.202 58.072 366.546 59.224 367.634 60.888C368.786 62.488 369.362 64.28 369.362 66.264C369.362 68.952 368.434 71.224 366.578 73.08C364.722 74.936 362.45 75.864 359.762 75.864C357.074 75.864 354.802 74.936 352.946 73.08C351.09 71.224 350.162 68.952 350.162 66.264C350.162 64.152 350.77 62.104 351.986 60.12Z" fill="white"/>
<path d="M412.791 111L393.207 88.92V111H380.055V39H393.207V80.664L408.759 63H424.599L405.591 84.6L429.015 111H412.791Z" fill="white"/>
<path d="M450.074 112.056C443.738 112.056 438.394 109.592 434.042 104.664C429.69 99.736 427.514 93.848 427.514 87C427.514 80.152 429.69 74.264 434.042 69.336C438.394 64.408 443.738 61.944 450.074 61.944C453.146 61.944 455.898 62.584 458.33 63.864C460.762 65.144 462.618 66.648 463.898 68.376V63H477.05V111H463.898V105.624C462.618 107.352 460.762 108.856 458.33 110.136C455.898 111.416 453.146 112.056 450.074 112.056ZM444.026 96.408C446.266 98.84 449.21 100.056 452.858 100.056C456.506 100.056 459.418 98.84 461.594 96.408C463.834 93.976 464.954 90.84 464.954 87C464.954 83.16 463.834 80.024 461.594 77.592C459.418 75.16 456.506 73.944 452.858 73.944C449.21 73.944 446.266 75.16 444.026 77.592C441.85 80.024 440.762 83.16 440.762 87C440.762 90.84 441.85 93.976 444.026 96.408Z" fill="white"/>
<path d="M513.068 111.576C507.692 111.576 503.276 110.104 499.82 107.16C496.428 104.152 494.732 99.832 494.732 94.2V74.52H485.036V63H494.732V49.656H507.884V63H521.42V74.52H507.884V91.608C507.884 94.552 508.524 96.664 509.804 97.944C511.084 99.16 513.164 99.768 516.044 99.768C518.092 99.768 519.884 99.48 521.42 98.904V110.52C519.116 111.224 516.332 111.576 513.068 111.576Z" fill="white"/>
<path d="M574.869 98.04V111H528.405V106.488C528.405 104.632 528.597 102.84 528.981 101.112C529.365 99.384 529.813 97.88 530.325 96.6C530.901 95.256 531.733 93.88 532.821 92.472C533.909 91.064 534.837 89.912 535.605 89.016C536.373 88.12 537.525 87.032 539.061 85.752C540.661 84.472 541.877 83.544 542.709 82.968C543.541 82.328 544.853 81.4 546.645 80.184C548.437 78.904 549.685 78.008 550.389 77.496C557.557 72.504 561.141 67.832 561.141 63.48C561.141 60.92 560.341 58.808 558.741 57.144C557.141 55.48 554.933 54.648 552.117 54.648C549.109 54.648 546.613 55.576 544.629 57.432C542.709 59.224 541.781 61.496 541.845 64.248H528.597C528.597 57.592 530.837 52.184 535.317 48.024C539.861 43.8 545.557 41.688 552.405 41.688C558.485 41.688 563.637 43.544 567.861 47.256C572.149 50.968 574.293 56.12 574.293 62.712C574.293 68.152 573.109 72.632 570.741 76.152C568.437 79.608 564.821 83.128 559.893 86.712C559.445 87.032 558.293 87.832 556.437 89.112C554.581 90.328 553.173 91.288 552.213 91.992C551.253 92.696 550.165 93.624 548.949 94.776C547.797 95.928 547.029 97.016 546.645 98.04H574.869Z" fill="white"/>
<path d="M594.092 111V55.8H579.692L589.292 42.84H607.244V111H594.092Z" fill="white"/>
<path d="M637.5 57.432L626.748 74.712H618.972L626.076 60.12C624.476 59.48 623.1 58.36 621.948 56.76C620.86 55.096 620.316 53.272 620.316 51.288C620.316 48.6 621.244 46.328 623.1 44.472C624.956 42.616 627.228 41.688 629.916 41.688C632.604 41.688 634.876 42.616 636.732 44.472C638.588 46.328 639.516 48.6 639.516 51.288C639.516 53.336 638.844 55.384 637.5 57.432Z" fill="white"/>
<path d="M658.624 86.328V84.504C658.624 79.768 661.408 75.48 666.976 71.64C667.424 71.32 668.224 70.776 669.376 70.008C670.592 69.176 671.424 68.6 671.872 68.28C672.384 67.896 672.992 67.352 673.696 66.648C674.4 65.944 674.88 65.208 675.136 64.44C675.392 63.672 675.52 62.84 675.52 61.944C675.52 59.704 674.752 57.944 673.216 56.664C671.744 55.32 669.856 54.648 667.552 54.648C665.056 54.648 662.912 55.416 661.12 56.952C659.392 58.488 658.528 60.6 658.528 63.288H645.376C645.376 57.336 647.52 52.248 651.808 48.024C656.096 43.8 661.344 41.688 667.552 41.688C673.696 41.688 678.752 43.64 682.72 47.544C686.688 51.384 688.672 55.928 688.672 61.176C688.672 64.824 688 67.96 686.656 70.584C685.312 73.208 683.104 75.672 680.032 77.976C679.52 78.36 678.848 78.84 678.016 79.416C677.248 79.992 676.64 80.44 676.192 80.76C675.808 81.016 675.328 81.368 674.752 81.816C674.176 82.264 673.728 82.648 673.408 82.968C673.152 83.224 672.864 83.544 672.544 83.928C672.288 84.312 672.096 84.664 671.968 84.984C671.84 85.304 671.776 85.656 671.776 86.04V86.328H658.624ZM665.152 111.768C662.464 111.768 660.192 110.84 658.336 108.984C656.48 107.128 655.552 104.856 655.552 102.168C655.552 99.48 656.48 97.208 658.336 95.352C660.192 93.496 662.464 92.568 665.152 92.568C667.776 92.568 670.016 93.528 671.872 95.448C673.792 97.304 674.752 99.544 674.752 102.168C674.752 104.792 673.792 107.064 671.872 108.984C670.016 110.84 667.776 111.768 665.152 111.768Z" fill="white"/>
<path d="M62.8763 125.455C53.2882 125.455 44.634 123.992 36.9136 121.066C29.1933 118.14 22.6145 113.958 17.1771 108.52C11.7396 103.083 7.5578 96.5041 4.63156 88.7838C1.70531 81.0635 0.242188 72.4092 0.242188 62.8211C0.242188 53.233 1.70531 44.5788 4.63156 36.8585C7.5578 29.1382 11.7396 22.5595 17.1771 17.1219C22.6145 11.6843 29.1933 7.50287 36.9136 4.57613C44.634 1.65038 53.2882 0.187012 62.8763 0.187012C72.4644 0.187012 81.1186 1.65038 88.8389 4.57613C96.5592 7.50287 103.138 11.6843 108.576 17.1219C114.013 22.5595 118.195 29.1382 121.121 36.8585C124.048 44.5788 125.51 53.233 125.51 62.8211C125.51 72.4092 124.048 81.0635 121.121 88.7838C118.195 96.5041 114.013 103.083 108.576 108.52C103.138 113.958 96.5592 118.14 88.8389 121.066C81.1186 123.992 72.4644 125.455 62.8763 125.455Z" fill="#FFB02E"/>
<path d="M61.7547 87.4139C63.2903 87.4139 64.6083 87.9638 65.7085 89.0638C66.8083 90.1637 67.3582 91.4816 67.3582 93.0173C67.3582 94.5946 66.8188 95.9228 65.7394 97.002C64.6601 98.0812 63.3322 98.6208 61.7547 98.6208H53.9099C55.1551 99.2019 56.2136 99.9075 57.0852 100.738C57.9569 101.568 58.3927 102.73 58.3927 104.224C58.3927 105.718 57.9569 106.881 57.0852 107.711C56.2136 108.541 55.1551 109.247 53.9099 109.828C54.8647 109.828 55.6846 110.17 56.3695 110.855C57.0543 111.54 57.3965 112.36 57.3965 113.314C57.3965 115.348 56.8571 116.759 55.7777 117.548C54.6984 118.337 53.225 118.731 51.3572 118.731H49.4272C50.6724 119.354 51.7308 120.07 52.6024 120.879C53.4741 121.688 53.9099 122.861 53.9099 124.397C53.9099 125.932 53.3705 127.24 52.2911 128.319C51.2118 129.398 49.9043 129.938 48.3687 129.938H33.7998C31.6416 129.938 29.587 129.844 27.636 129.658C25.685 129.471 23.7966 129.128 21.9703 128.63C20.1439 128.132 18.3592 127.447 16.6159 126.576C14.8726 125.704 13.1293 124.583 11.386 123.214C9.26911 121.512 7.69183 119.437 6.65417 116.988C5.61651 114.539 5.09766 111.965 5.09766 109.267C5.09766 104.743 6.22871 100.79 8.49086 97.4067C10.753 94.0238 13.9594 91.44 18.1101 89.6552C19.2308 89.1572 20.1024 88.2752 20.7251 87.0092C21.3477 85.7432 21.7938 84.3423 22.0637 82.8066C22.3335 81.2708 22.4995 79.7247 22.5617 78.1682C22.624 76.6117 22.6966 75.3146 22.7796 74.2769C22.8211 73.3638 23.0183 72.4817 23.3711 71.6308C23.7239 70.7799 24.1909 70.0328 24.772 69.3894C25.3532 68.7461 26.0486 68.2376 26.858 67.8641C27.6674 67.4905 28.5699 67.3037 29.566 67.3037C30.4377 67.3037 31.268 67.4697 32.0565 67.8018C32.8449 68.1339 33.5403 68.5904 34.1424 69.1715C34.7441 69.7526 35.2108 70.4375 35.5431 71.2261C35.8753 72.0147 36.0411 72.8449 36.0411 73.7165V87.4139H61.7547Z" fill="#FFB02E"/>
<path d="M37.9081 63.8173C35.2932 63.8173 32.8441 63.3296 30.5614 62.3542C28.2787 61.3788 26.2863 60.0402 24.5844 58.3383C22.8826 56.6364 21.544 54.6441 20.5686 52.3613C19.5932 50.0786 19.1055 47.6295 19.1055 45.0146C19.1055 42.3997 19.5932 39.9506 20.5686 37.6679C21.544 35.3851 22.8826 33.3928 24.5844 31.6908C26.2863 29.9889 28.2787 28.6505 30.5614 27.6748C32.8441 26.6995 35.2932 26.2119 37.9081 26.2119C40.5231 26.2119 42.9722 26.6995 45.2549 27.6748C47.5376 28.6505 49.5299 29.9889 51.2319 31.6908C52.9339 33.3928 54.2722 35.3851 55.248 37.6679C56.2232 39.9506 56.7108 42.3997 56.7108 45.0146C56.7108 47.6295 56.2232 50.0786 55.248 52.3613C54.2722 54.6441 52.9339 56.6364 51.2319 58.3383C49.5299 60.0402 47.5376 61.3788 45.2549 62.3542C42.9722 63.3296 40.5231 63.8173 37.9081 63.8173ZM87.7788 64.1908C85.1639 64.1908 82.7044 63.6928 80.4012 62.6966C78.0971 61.7004 76.0843 60.341 74.3619 58.6185C72.6391 56.8959 71.2798 54.8831 70.2836 52.579C69.2875 50.2759 68.7894 47.8163 68.7894 45.2014C68.7894 42.5864 69.2875 40.1269 70.2836 37.8233C71.2798 35.5196 72.6391 33.5069 74.3619 31.784C76.0843 30.0616 78.0971 28.7023 80.4012 27.7062C82.7044 26.71 85.1639 26.2119 87.7788 26.2119C90.3938 26.2119 92.8633 26.71 95.1878 27.7062C97.5124 28.7023 99.5252 30.0511 101.227 31.7531C102.929 33.4551 104.278 35.4678 105.274 37.7924C106.27 40.1169 106.768 42.5864 106.768 45.2014C106.768 47.8163 106.27 50.2759 105.274 52.579C104.278 54.8831 102.919 56.8959 101.196 58.6185C99.4734 60.341 97.4601 61.7004 95.157 62.6966C92.8528 63.6928 90.3938 64.1908 87.7788 64.1908Z" fill="white"/>
<path d="M61.7547 87.4139C63.2903 87.4139 64.6083 87.9638 65.7085 89.0638C66.8083 90.1637 67.3582 91.4816 67.3582 93.0173C67.3582 94.5946 66.8188 95.9228 65.7394 97.002C64.6601 98.0812 63.3322 98.6208 61.7547 98.6208H53.9099C55.1551 99.2019 56.2136 99.9075 57.0852 100.738C57.9569 101.568 58.3927 102.73 58.3927 104.224C58.3927 105.718 57.9569 106.881 57.0852 107.711C56.2136 108.541 55.1551 109.247 53.9099 109.828C54.8647 109.828 55.6846 110.17 56.3695 110.855C57.0543 111.54 57.3965 112.36 57.3965 113.314C57.3965 115.348 56.8571 116.759 55.7777 117.548C54.6984 118.337 53.225 118.731 51.3572 118.731H49.4272C50.6724 119.354 51.7308 120.07 52.6024 120.879C53.4741 121.688 53.9099 122.861 53.9099 124.397C53.9099 125.932 53.3705 127.24 52.2911 128.319C51.2118 129.398 49.9043 129.938 48.3687 129.938H33.7998C31.6416 129.938 29.587 129.844 27.636 129.658C25.685 129.471 23.7966 129.128 21.9703 128.63C20.1439 128.132 18.3592 127.447 16.6159 126.576C14.8726 125.704 13.1293 124.583 11.386 123.214C9.26911 121.512 7.69183 119.437 6.65417 116.988C5.61651 114.539 5.09766 111.965 5.09766 109.267C5.09766 104.743 6.22871 100.79 8.49086 97.4067C10.753 94.0238 13.9594 91.44 18.1101 89.6552C19.2308 89.1572 20.1024 88.2752 20.7251 87.0092C21.3477 85.7432 21.7938 84.3423 22.0637 82.8066C22.3335 81.2708 22.4995 79.7247 22.5617 78.1682C22.624 76.6117 22.6966 75.3146 22.7796 74.2769C22.8211 73.3638 23.0183 72.4817 23.3711 71.6308C23.7239 70.7799 24.1909 70.0328 24.772 69.3894C25.3532 68.7461 26.0486 68.2376 26.858 67.8641C27.6674 67.4905 28.5699 67.3037 29.566 67.3037C30.4377 67.3037 31.268 67.4697 32.0565 67.8018C32.8449 68.1339 33.5403 68.5904 34.1424 69.1715C34.7441 69.7526 35.2108 70.4375 35.5431 71.2261C35.8753 72.0147 36.0411 72.8449 36.0411 73.7165V87.4139H61.7547Z" fill="#FF822D"/>
<path d="M36.042 4.66943C36.8305 4.66943 37.9721 4.8353 39.4664 5.16752C40.9606 5.49974 42.4444 5.96644 43.9182 6.56813C45.3916 7.17031 46.6781 7.8761 47.7784 8.68499C48.8782 9.49487 49.428 10.3974 49.428 11.3936C49.428 11.9748 49.1999 12.4933 48.7432 12.9501C48.2864 13.4068 47.7679 13.635 47.1867 13.635C46.8544 13.635 46.5745 13.5727 46.3464 13.4482C46.1178 13.3236 45.8792 13.1578 45.6301 12.9501C44.2191 11.7881 42.7353 10.8646 41.1788 10.1792C39.6223 9.49487 37.9098 9.15219 36.042 9.15219C34.5891 9.15219 33.2508 9.39077 32.0265 9.86794C30.8017 10.3456 29.7124 10.8641 28.7575 11.4245C27.8027 11.9848 26.9834 12.4933 26.2985 12.9501C25.6136 13.4068 25.1257 13.635 24.8351 13.635C24.254 13.635 23.7352 13.4068 23.2786 12.9501C22.822 12.4933 22.5938 11.9748 22.5938 11.3936C22.5938 11.0613 22.656 10.771 22.7805 10.5219C22.9051 10.2729 23.0711 10.0238 23.2786 9.7748C23.9427 8.98633 24.7936 8.28054 25.8313 7.65794C26.8688 7.03533 27.9795 6.50637 29.1625 6.07004C30.3454 5.63472 31.5383 5.29204 32.7422 5.043C33.9461 4.79395 35.0459 4.66943 36.042 4.66943ZM87.4692 22.5382C88.0086 22.5382 88.7767 22.6109 89.7729 22.7559C90.769 22.9013 91.8484 23.0986 93.0104 23.3476C94.1724 23.5966 95.3554 23.9184 96.5593 24.3124C97.7631 24.7069 98.8524 25.1531 99.8282 25.6512C100.803 26.1493 101.602 26.6992 102.225 27.3009C102.848 27.9031 103.159 28.5566 103.159 29.2623C103.159 29.8436 102.931 30.3621 102.474 30.8189C102.017 31.2756 101.499 31.5037 100.917 31.5037C100.419 31.5037 99.9422 31.3379 99.4855 31.0056C97.5763 29.8018 95.6772 28.837 93.7889 28.1103C91.9002 27.3841 89.7938 27.021 87.4692 27.021C85.1033 27.021 83.0074 27.3841 81.1809 28.1103C79.3544 28.837 77.4662 29.8018 75.5152 31.0056C75.0585 31.3379 74.5813 31.5037 74.0832 31.5037C73.4606 31.5037 72.9212 31.2856 72.4644 30.8497C72.0077 30.4139 71.7796 29.8849 71.7796 29.2623C71.7796 28.9301 71.8627 28.6188 72.0286 28.3284C72.1945 28.0381 72.4022 27.7681 72.6512 27.519C73.4397 26.7306 74.4568 26.0353 75.702 25.4331C76.9472 24.8314 78.2547 24.3124 79.6244 23.8766C80.9941 23.4407 82.3743 23.109 83.765 22.8804C85.1551 22.6523 86.3899 22.5382 87.4692 22.5382ZM49.428 42.7106C49.428 44.5784 49.0754 46.3217 48.3696 47.9405C47.6638 49.5593 46.7095 50.9703 45.5056 52.1742C44.3018 53.3781 42.8907 54.3324 41.2719 55.0382C39.6531 55.744 37.9098 56.0966 36.042 56.0966C34.1742 56.0966 32.4309 55.744 30.8121 55.0382C29.1934 54.3324 27.7718 53.3781 26.5475 52.1742C25.3228 50.9703 24.3578 49.5593 23.6522 47.9405C22.9465 46.3217 22.5938 44.5784 22.5938 42.7106C22.5938 40.8428 22.9465 39.0995 23.6522 37.4807C24.3578 35.862 25.3228 34.4404 26.5475 33.2156C27.7718 31.9913 29.1934 31.0266 30.8121 30.3208C32.4309 29.615 34.1742 29.2623 36.042 29.2623C37.9098 29.2623 39.6531 29.615 41.2719 30.3208C42.8907 31.0266 44.3018 31.9913 45.5056 33.2156C46.7095 34.4404 47.6638 35.862 48.3696 37.4807C49.0754 39.0995 49.428 40.8428 49.428 42.7106ZM98.6761 42.7106C98.6761 44.5784 98.3235 46.3217 97.6177 47.9405C96.9119 49.5593 95.9471 50.9703 94.7228 52.1742C93.498 53.3781 92.0765 54.3324 90.4577 55.0382C88.839 55.744 87.0957 56.0966 85.2278 56.0966C83.36 56.0966 81.6167 55.744 79.998 55.0382C78.3792 54.3324 76.9681 53.3781 75.7642 52.1742C74.5604 50.9703 73.606 49.5593 72.9003 47.9405C72.1945 46.3217 71.8418 44.5784 71.8418 42.7106C71.8418 40.8428 72.1945 39.0995 72.9003 37.4807C73.606 35.862 74.5604 34.4404 75.7642 33.2156C76.9681 31.9913 78.3792 31.0266 79.998 30.3208C81.6167 29.615 83.36 29.2623 85.2278 29.2623C87.0957 29.2623 88.839 29.615 90.4577 30.3208C92.0765 31.0266 93.498 31.9913 94.7228 33.2156C95.9471 34.4404 96.9119 35.862 97.6177 37.4807C98.3235 39.0995 98.6761 40.8428 98.6761 42.7106ZM61.0085 76.02C59.4311 76.02 58.0823 76.269 56.9616 76.7671C55.8409 77.2652 54.8552 77.8048 54.0044 78.3859C53.1532 78.967 52.3752 79.5066 51.6694 80.0047C50.9636 80.5028 50.2165 80.7518 49.428 80.7518C48.2242 80.7518 47.1762 80.3056 46.2841 79.4132C45.3916 78.5208 44.9453 77.4728 44.9453 76.269C44.9453 75.6049 45.0593 75.0238 45.288 74.5257C45.5161 74.0277 45.8583 73.5504 46.315 73.0938C47.228 72.1391 48.2555 71.2882 49.3972 70.5411C50.5383 69.7939 51.7526 69.161 53.0391 68.6421C54.3257 68.1233 55.6436 67.729 56.9929 67.4592C58.3418 67.1894 59.6801 67.0545 61.0085 67.0545C62.9595 67.0545 64.9205 67.3139 66.8924 67.8327C68.8638 68.3516 70.7211 69.1091 72.4644 70.1053C74.2077 71.1014 75.7747 72.3363 77.1654 73.8098C78.5555 75.2832 79.6244 76.9539 80.3715 78.8217C80.6206 79.4443 80.7451 80.0669 80.7451 80.6895C80.7451 81.9348 80.3197 82.9932 79.469 83.8648C78.6178 84.7365 77.5698 85.1723 76.3246 85.1723C75.4116 85.1723 74.6645 84.944 74.0832 84.4874C73.5019 84.0308 72.9521 83.4705 72.4336 82.8064C71.9145 82.1423 71.3851 81.4055 70.8457 80.5962C70.3062 79.7868 69.6109 79.05 68.7602 78.3859C67.909 77.7218 66.8714 77.1615 65.6472 76.7049C64.4224 76.2483 62.8763 76.02 61.0085 76.02Z" fill="#402A32"/>
</g>
<defs>
<clipPath id="clip0_176_257">
<rect width="706" height="130" fill="white"/>
</clipPath>
</defs>
</svg>
