<svg width="706" height="130" viewBox="0 0 706 130" fill="none" xmlns="http://www.w3.org/2000/svg">
<g clip-path="url(#clip0_176_290)">
<rect x="44" y="120" width="627" height="10" rx="5" fill="black"/>
<path d="M187.424 108L178.4 80.736L169.472 108H156.416L140.48 60H154.496L163.616 90.72L173.312 60H183.392L193.184 90.72L202.208 60H216.32L200.48 108H187.424ZM236.269 108H223.117V36H236.269V65.472C239.213 61.12 243.789 58.944 249.997 58.944C255.757 58.944 260.269 60.864 263.533 64.704C266.861 68.48 268.525 73.536 268.525 79.872V108H255.373V82.08C255.373 78.56 254.637 75.84 253.165 73.92C251.693 71.936 249.613 70.944 246.925 70.944C243.725 70.944 241.133 72.096 239.149 74.4C237.229 76.704 236.269 80.096 236.269 84.576V108ZM297.42 128.064H283.116L293.196 105.312L273.036 60H287.436L300.3 91.104L313.068 60H327.564L297.42 128.064ZM351.985 57.12L362.929 39.84H370.513L363.601 54.432C365.201 55.072 366.545 56.224 367.633 57.888C368.785 59.488 369.361 61.28 369.361 63.264C369.361 65.952 368.433 68.224 366.577 70.08C364.721 71.936 362.449 72.864 359.761 72.864C357.073 72.864 354.801 71.936 352.945 70.08C351.089 68.224 350.161 65.952 350.161 63.264C350.161 61.152 350.769 59.104 351.985 57.12ZM412.791 108L393.207 85.92V108H380.055V36H393.207V77.664L408.759 60H424.599L405.591 81.6L429.015 108H412.791ZM450.074 109.056C443.738 109.056 438.394 106.592 434.042 101.664C429.69 96.736 427.514 90.848 427.514 84C427.514 77.152 429.69 71.264 434.042 66.336C438.394 61.408 443.738 58.944 450.074 58.944C453.146 58.944 455.898 59.584 458.33 60.864C460.762 62.144 462.618 63.648 463.898 65.376V60H477.05V108H463.898V102.624C462.618 104.352 460.762 105.856 458.33 107.136C455.898 108.416 453.146 109.056 450.074 109.056ZM444.026 93.408C446.266 95.84 449.21 97.056 452.858 97.056C456.506 97.056 459.418 95.84 461.594 93.408C463.834 90.976 464.954 87.84 464.954 84C464.954 80.16 463.834 77.024 461.594 74.592C459.418 72.16 456.506 70.944 452.858 70.944C449.21 70.944 446.266 72.16 444.026 74.592C441.85 77.024 440.762 80.16 440.762 84C440.762 87.84 441.85 90.976 444.026 93.408ZM513.068 108.576C507.692 108.576 503.276 107.104 499.82 104.16C496.428 101.152 494.732 96.832 494.732 91.2V71.52H485.036V60H494.732V46.656H507.884V60H521.42V71.52H507.884V88.608C507.884 91.552 508.524 93.664 509.804 94.944C511.084 96.16 513.164 96.768 516.044 96.768C518.092 96.768 519.884 96.48 521.42 95.904V107.52C519.116 108.224 516.332 108.576 513.068 108.576ZM574.869 95.04V108H528.405V103.488C528.405 101.632 528.597 99.84 528.981 98.112C529.365 96.384 529.813 94.88 530.325 93.6C530.901 92.256 531.733 90.88 532.821 89.472C533.909 88.064 534.837 86.912 535.605 86.016C536.373 85.12 537.525 84.032 539.061 82.752C540.661 81.472 541.877 80.544 542.709 79.968C543.541 79.328 544.853 78.4 546.645 77.184C548.437 75.904 549.685 75.008 550.389 74.496C557.557 69.504 561.141 64.832 561.141 60.48C561.141 57.92 560.341 55.808 558.741 54.144C557.141 52.48 554.933 51.648 552.117 51.648C549.109 51.648 546.613 52.576 544.629 54.432C542.709 56.224 541.781 58.496 541.845 61.248H528.597C528.597 54.592 530.837 49.184 535.317 45.024C539.861 40.8 545.557 38.688 552.405 38.688C558.485 38.688 563.637 40.544 567.861 44.256C572.149 47.968 574.293 53.12 574.293 59.712C574.293 65.152 573.109 69.632 570.741 73.152C568.437 76.608 564.821 80.128 559.893 83.712C559.445 84.032 558.293 84.832 556.437 86.112C554.581 87.328 553.173 88.288 552.213 88.992C551.253 89.696 550.165 90.624 548.949 91.776C547.797 92.928 547.029 94.016 546.645 95.04H574.869ZM594.092 108V52.8H579.692L589.292 39.84H607.244V108H594.092ZM637.5 54.432L626.748 71.712H618.972L626.076 57.12C624.476 56.48 623.1 55.36 621.948 53.76C620.86 52.096 620.316 50.272 620.316 48.288C620.316 45.6 621.244 43.328 623.1 41.472C624.956 39.616 627.228 38.688 629.916 38.688C632.604 38.688 634.876 39.616 636.732 41.472C638.588 43.328 639.516 45.6 639.516 48.288C639.516 50.336 638.844 52.384 637.5 54.432ZM658.624 83.328V81.504C658.624 76.768 661.408 72.48 666.976 68.64C667.424 68.32 668.224 67.776 669.376 67.008C670.592 66.176 671.424 65.6 671.872 65.28C672.384 64.896 672.992 64.352 673.696 63.648C674.4 62.944 674.88 62.208 675.136 61.44C675.392 60.672 675.52 59.84 675.52 58.944C675.52 56.704 674.752 54.944 673.216 53.664C671.744 52.32 669.856 51.648 667.552 51.648C665.056 51.648 662.912 52.416 661.12 53.952C659.392 55.488 658.528 57.6 658.528 60.288H645.376C645.376 54.336 647.52 49.248 651.808 45.024C656.096 40.8 661.344 38.688 667.552 38.688C673.696 38.688 678.752 40.64 682.72 44.544C686.688 48.384 688.672 52.928 688.672 58.176C688.672 61.824 688 64.96 686.656 67.584C685.312 70.208 683.104 72.672 680.032 74.976C679.52 75.36 678.848 75.84 678.016 76.416C677.248 76.992 676.64 77.44 676.192 77.76C675.808 78.016 675.328 78.368 674.752 78.816C674.176 79.264 673.728 79.648 673.408 79.968C673.152 80.224 672.864 80.544 672.544 80.928C672.288 81.312 672.096 81.664 671.968 81.984C671.84 82.304 671.776 82.656 671.776 83.04V83.328H658.624ZM665.152 108.768C662.464 108.768 660.192 107.84 658.336 105.984C656.48 104.128 655.552 101.856 655.552 99.168C655.552 96.48 656.48 94.208 658.336 92.352C660.192 90.496 662.464 89.568 665.152 89.568C667.776 89.568 670.016 90.528 671.872 92.448C673.792 94.304 674.752 96.544 674.752 99.168C674.752 101.792 673.792 104.064 671.872 105.984C670.016 107.84 667.776 108.768 665.152 108.768Z" fill="black"/>
<path d="M62.8763 125.455C53.2882 125.455 44.634 123.992 36.9136 121.066C29.1933 118.14 22.6145 113.958 17.1771 108.52C11.7396 103.083 7.5578 96.5041 4.63156 88.7838C1.70531 81.0635 0.242188 72.4092 0.242188 62.8211C0.242188 53.233 1.70531 44.5788 4.63156 36.8585C7.5578 29.1382 11.7396 22.5595 17.1771 17.1219C22.6145 11.6843 29.1933 7.50287 36.9136 4.57613C44.634 1.65038 53.2882 0.187012 62.8763 0.187012C72.4644 0.187012 81.1186 1.65038 88.8389 4.57613C96.5592 7.50287 103.138 11.6843 108.576 17.1219C114.013 22.5595 118.195 29.1382 121.121 36.8585C124.048 44.5788 125.51 53.233 125.51 62.8211C125.51 72.4092 124.048 81.0635 121.121 88.7838C118.195 96.5041 114.013 103.083 108.576 108.52C103.138 113.958 96.5592 118.14 88.8389 121.066C81.1186 123.992 72.4644 125.455 62.8763 125.455Z" fill="#FFB02E"/>
<path d="M61.7547 87.4139C63.2903 87.4139 64.6083 87.9638 65.7085 89.0638C66.8083 90.1637 67.3582 91.4816 67.3582 93.0173C67.3582 94.5946 66.8188 95.9228 65.7394 97.002C64.6601 98.0812 63.3322 98.6208 61.7547 98.6208H53.9099C55.1551 99.2019 56.2136 99.9075 57.0852 100.738C57.9569 101.568 58.3927 102.73 58.3927 104.224C58.3927 105.718 57.9569 106.881 57.0852 107.711C56.2136 108.541 55.1551 109.247 53.9099 109.828C54.8647 109.828 55.6846 110.17 56.3695 110.855C57.0543 111.54 57.3965 112.36 57.3965 113.314C57.3965 115.348 56.8571 116.759 55.7777 117.548C54.6984 118.337 53.225 118.731 51.3572 118.731H49.4272C50.6724 119.354 51.7308 120.07 52.6024 120.879C53.4741 121.688 53.9099 122.861 53.9099 124.397C53.9099 125.932 53.3705 127.24 52.2911 128.319C51.2118 129.398 49.9043 129.938 48.3687 129.938H33.7998C31.6416 129.938 29.587 129.844 27.636 129.658C25.685 129.471 23.7966 129.128 21.9703 128.63C20.1439 128.132 18.3592 127.447 16.6159 126.576C14.8726 125.704 13.1293 124.583 11.386 123.214C9.26911 121.512 7.69183 119.437 6.65417 116.988C5.61651 114.539 5.09766 111.965 5.09766 109.267C5.09766 104.743 6.22871 100.79 8.49086 97.4067C10.753 94.0238 13.9594 91.44 18.1101 89.6552C19.2308 89.1572 20.1024 88.2752 20.7251 87.0092C21.3477 85.7432 21.7938 84.3423 22.0637 82.8066C22.3335 81.2708 22.4995 79.7247 22.5617 78.1682C22.624 76.6117 22.6966 75.3146 22.7796 74.2769C22.8211 73.3638 23.0183 72.4817 23.3711 71.6308C23.7239 70.7799 24.1909 70.0328 24.772 69.3894C25.3532 68.7461 26.0486 68.2376 26.858 67.8641C27.6674 67.4905 28.5699 67.3037 29.566 67.3037C30.4377 67.3037 31.268 67.4697 32.0565 67.8018C32.8449 68.1339 33.5403 68.5904 34.1424 69.1715C34.7441 69.7526 35.2108 70.4375 35.5431 71.2261C35.8753 72.0147 36.0411 72.8449 36.0411 73.7165V87.4139H61.7547Z" fill="#FFB02E"/>
<path d="M37.9081 63.8173C35.2932 63.8173 32.8441 63.3296 30.5614 62.3542C28.2787 61.3788 26.2863 60.0402 24.5844 58.3383C22.8826 56.6364 21.544 54.6441 20.5686 52.3613C19.5932 50.0786 19.1055 47.6295 19.1055 45.0146C19.1055 42.3997 19.5932 39.9506 20.5686 37.6679C21.544 35.3851 22.8826 33.3928 24.5844 31.6908C26.2863 29.9889 28.2787 28.6505 30.5614 27.6748C32.8441 26.6995 35.2932 26.2119 37.9081 26.2119C40.5231 26.2119 42.9722 26.6995 45.2549 27.6748C47.5376 28.6505 49.5299 29.9889 51.2319 31.6908C52.9339 33.3928 54.2722 35.3851 55.248 37.6679C56.2232 39.9506 56.7108 42.3997 56.7108 45.0146C56.7108 47.6295 56.2232 50.0786 55.248 52.3613C54.2722 54.6441 52.9339 56.6364 51.2319 58.3383C49.5299 60.0402 47.5376 61.3788 45.2549 62.3542C42.9722 63.3296 40.5231 63.8173 37.9081 63.8173ZM87.7788 64.1908C85.1639 64.1908 82.7044 63.6928 80.4012 62.6966C78.0971 61.7004 76.0843 60.341 74.3619 58.6185C72.6391 56.8959 71.2798 54.8831 70.2836 52.579C69.2875 50.2759 68.7894 47.8163 68.7894 45.2014C68.7894 42.5864 69.2875 40.1269 70.2836 37.8233C71.2798 35.5196 72.6391 33.5069 74.3619 31.784C76.0843 30.0616 78.0971 28.7023 80.4012 27.7062C82.7044 26.71 85.1639 26.2119 87.7788 26.2119C90.3938 26.2119 92.8633 26.71 95.1878 27.7062C97.5124 28.7023 99.5252 30.0511 101.227 31.7531C102.929 33.4551 104.278 35.4678 105.274 37.7924C106.27 40.1169 106.768 42.5864 106.768 45.2014C106.768 47.8163 106.27 50.2759 105.274 52.579C104.278 54.8831 102.919 56.8959 101.196 58.6185C99.4734 60.341 97.4601 61.7004 95.157 62.6966C92.8528 63.6928 90.3938 64.1908 87.7788 64.1908Z" fill="white"/>
<path d="M61.7547 87.4139C63.2903 87.4139 64.6083 87.9638 65.7085 89.0638C66.8083 90.1637 67.3582 91.4816 67.3582 93.0173C67.3582 94.5946 66.8188 95.9228 65.7394 97.002C64.6601 98.0812 63.3322 98.6208 61.7547 98.6208H53.9099C55.1551 99.2019 56.2136 99.9075 57.0852 100.738C57.9569 101.568 58.3927 102.73 58.3927 104.224C58.3927 105.718 57.9569 106.881 57.0852 107.711C56.2136 108.541 55.1551 109.247 53.9099 109.828C54.8647 109.828 55.6846 110.17 56.3695 110.855C57.0543 111.54 57.3965 112.36 57.3965 113.314C57.3965 115.348 56.8571 116.759 55.7777 117.548C54.6984 118.337 53.225 118.731 51.3572 118.731H49.4272C50.6724 119.354 51.7308 120.07 52.6024 120.879C53.4741 121.688 53.9099 122.861 53.9099 124.397C53.9099 125.932 53.3705 127.24 52.2911 128.319C51.2118 129.398 49.9043 129.938 48.3687 129.938H33.7998C31.6416 129.938 29.587 129.844 27.636 129.658C25.685 129.471 23.7966 129.128 21.9703 128.63C20.1439 128.132 18.3592 127.447 16.6159 126.576C14.8726 125.704 13.1293 124.583 11.386 123.214C9.26911 121.512 7.69183 119.437 6.65417 116.988C5.61651 114.539 5.09766 111.965 5.09766 109.267C5.09766 104.743 6.22871 100.79 8.49086 97.4067C10.753 94.0238 13.9594 91.44 18.1101 89.6552C19.2308 89.1572 20.1024 88.2752 20.7251 87.0092C21.3477 85.7432 21.7938 84.3423 22.0637 82.8066C22.3335 81.2708 22.4995 79.7247 22.5617 78.1682C22.624 76.6117 22.6966 75.3146 22.7796 74.2769C22.8211 73.3638 23.0183 72.4817 23.3711 71.6308C23.7239 70.7799 24.1909 70.0328 24.772 69.3894C25.3532 68.7461 26.0486 68.2376 26.858 67.8641C27.6674 67.4905 28.5699 67.3037 29.566 67.3037C30.4377 67.3037 31.268 67.4697 32.0565 67.8018C32.8449 68.1339 33.5403 68.5904 34.1424 69.1715C34.7441 69.7526 35.2108 70.4375 35.5431 71.2261C35.8753 72.0147 36.0411 72.8449 36.0411 73.7165V87.4139H61.7547Z" fill="#FF822D"/>
<path d="M36.042 4.66943C36.8305 4.66943 37.9721 4.8353 39.4664 5.16752C40.9606 5.49974 42.4444 5.96644 43.9182 6.56813C45.3916 7.17031 46.6781 7.8761 47.7784 8.68499C48.8782 9.49487 49.428 10.3974 49.428 11.3936C49.428 11.9748 49.1999 12.4933 48.7432 12.9501C48.2864 13.4068 47.7679 13.635 47.1867 13.635C46.8544 13.635 46.5745 13.5727 46.3464 13.4482C46.1178 13.3236 45.8792 13.1578 45.6301 12.9501C44.2191 11.7881 42.7353 10.8646 41.1788 10.1792C39.6223 9.49487 37.9098 9.15219 36.042 9.15219C34.5891 9.15219 33.2508 9.39077 32.0265 9.86794C30.8017 10.3456 29.7124 10.8641 28.7575 11.4245C27.8027 11.9848 26.9834 12.4933 26.2985 12.9501C25.6136 13.4068 25.1257 13.635 24.8351 13.635C24.254 13.635 23.7352 13.4068 23.2786 12.9501C22.822 12.4933 22.5938 11.9748 22.5938 11.3936C22.5938 11.0613 22.656 10.771 22.7805 10.5219C22.9051 10.2729 23.0711 10.0238 23.2786 9.7748C23.9427 8.98633 24.7936 8.28054 25.8313 7.65794C26.8688 7.03533 27.9795 6.50637 29.1625 6.07004C30.3454 5.63472 31.5383 5.29204 32.7422 5.043C33.9461 4.79395 35.0459 4.66943 36.042 4.66943ZM87.4692 22.5382C88.0086 22.5382 88.7767 22.6109 89.7729 22.7559C90.769 22.9013 91.8484 23.0986 93.0104 23.3476C94.1724 23.5966 95.3554 23.9184 96.5593 24.3124C97.7631 24.7069 98.8524 25.1531 99.8282 25.6512C100.803 26.1493 101.602 26.6992 102.225 27.3009C102.848 27.9031 103.159 28.5566 103.159 29.2623C103.159 29.8436 102.931 30.3621 102.474 30.8189C102.017 31.2756 101.499 31.5037 100.917 31.5037C100.419 31.5037 99.9422 31.3379 99.4855 31.0056C97.5763 29.8018 95.6772 28.837 93.7889 28.1103C91.9002 27.3841 89.7938 27.021 87.4692 27.021C85.1033 27.021 83.0074 27.3841 81.1809 28.1103C79.3544 28.837 77.4662 29.8018 75.5152 31.0056C75.0585 31.3379 74.5813 31.5037 74.0832 31.5037C73.4606 31.5037 72.9212 31.2856 72.4644 30.8497C72.0077 30.4139 71.7796 29.8849 71.7796 29.2623C71.7796 28.9301 71.8627 28.6188 72.0286 28.3284C72.1945 28.0381 72.4022 27.7681 72.6512 27.519C73.4397 26.7306 74.4568 26.0353 75.702 25.4331C76.9472 24.8314 78.2547 24.3124 79.6244 23.8766C80.9941 23.4407 82.3743 23.109 83.765 22.8804C85.1551 22.6523 86.3899 22.5382 87.4692 22.5382ZM49.428 42.7106C49.428 44.5784 49.0754 46.3217 48.3696 47.9405C47.6638 49.5593 46.7095 50.9703 45.5056 52.1742C44.3018 53.3781 42.8907 54.3324 41.2719 55.0382C39.6531 55.744 37.9098 56.0966 36.042 56.0966C34.1742 56.0966 32.4309 55.744 30.8121 55.0382C29.1934 54.3324 27.7718 53.3781 26.5475 52.1742C25.3228 50.9703 24.3578 49.5593 23.6522 47.9405C22.9465 46.3217 22.5938 44.5784 22.5938 42.7106C22.5938 40.8428 22.9465 39.0995 23.6522 37.4807C24.3578 35.862 25.3228 34.4404 26.5475 33.2156C27.7718 31.9913 29.1934 31.0266 30.8121 30.3208C32.4309 29.615 34.1742 29.2623 36.042 29.2623C37.9098 29.2623 39.6531 29.615 41.2719 30.3208C42.8907 31.0266 44.3018 31.9913 45.5056 33.2156C46.7095 34.4404 47.6638 35.862 48.3696 37.4807C49.0754 39.0995 49.428 40.8428 49.428 42.7106ZM98.6761 42.7106C98.6761 44.5784 98.3235 46.3217 97.6177 47.9405C96.9119 49.5593 95.9471 50.9703 94.7228 52.1742C93.498 53.3781 92.0765 54.3324 90.4577 55.0382C88.839 55.744 87.0957 56.0966 85.2278 56.0966C83.36 56.0966 81.6167 55.744 79.998 55.0382C78.3792 54.3324 76.9681 53.3781 75.7642 52.1742C74.5604 50.9703 73.606 49.5593 72.9003 47.9405C72.1945 46.3217 71.8418 44.5784 71.8418 42.7106C71.8418 40.8428 72.1945 39.0995 72.9003 37.4807C73.606 35.862 74.5604 34.4404 75.7642 33.2156C76.9681 31.9913 78.3792 31.0266 79.998 30.3208C81.6167 29.615 83.36 29.2623 85.2278 29.2623C87.0957 29.2623 88.839 29.615 90.4577 30.3208C92.0765 31.0266 93.498 31.9913 94.7228 33.2156C95.9471 34.4404 96.9119 35.862 97.6177 37.4807C98.3235 39.0995 98.6761 40.8428 98.6761 42.7106ZM61.0085 76.02C59.4311 76.02 58.0823 76.269 56.9616 76.7671C55.8409 77.2652 54.8552 77.8048 54.0044 78.3859C53.1532 78.967 52.3752 79.5066 51.6694 80.0047C50.9636 80.5028 50.2165 80.7518 49.428 80.7518C48.2242 80.7518 47.1762 80.3056 46.2841 79.4132C45.3916 78.5208 44.9453 77.4728 44.9453 76.269C44.9453 75.6049 45.0593 75.0238 45.288 74.5257C45.5161 74.0277 45.8583 73.5504 46.315 73.0938C47.228 72.1391 48.2555 71.2882 49.3972 70.5411C50.5383 69.7939 51.7526 69.161 53.0391 68.6421C54.3257 68.1233 55.6436 67.729 56.9929 67.4592C58.3418 67.1894 59.6801 67.0545 61.0085 67.0545C62.9595 67.0545 64.9205 67.3139 66.8924 67.8327C68.8638 68.3516 70.7211 69.1091 72.4644 70.1053C74.2077 71.1014 75.7747 72.3363 77.1654 73.8098C78.5555 75.2832 79.6244 76.9539 80.3715 78.8217C80.6206 79.4443 80.7451 80.0669 80.7451 80.6895C80.7451 81.9348 80.3197 82.9932 79.469 83.8648C78.6178 84.7365 77.5698 85.1723 76.3246 85.1723C75.4116 85.1723 74.6645 84.944 74.0832 84.4874C73.5019 84.0308 72.9521 83.4705 72.4336 82.8064C71.9145 82.1423 71.3851 81.4055 70.8457 80.5962C70.3062 79.7868 69.6109 79.05 68.7602 78.3859C67.909 77.7218 66.8714 77.1615 65.6472 76.7049C64.4224 76.2483 62.8763 76.02 61.0085 76.02Z" fill="#402A32"/>
</g>
<defs>
<clipPath id="clip0_176_290">
<rect width="706" height="130" fill="white"/>
</clipPath>
</defs>
</svg>
